<?xml version="1.0" encoding="UTF-8" standalone="no"?>
<!-- Created with Inkscape (http://www.inkscape.org/) -->

<svg
   xmlns:dc="http://purl.org/dc/elements/1.1/"
   xmlns:cc="http://creativecommons.org/ns#"
   xmlns:rdf="http://www.w3.org/1999/02/22-rdf-syntax-ns#"
   xmlns:svg="http://www.w3.org/2000/svg"
   xmlns="http://www.w3.org/2000/svg"
   xmlns:xlink="http://www.w3.org/1999/xlink"
   xmlns:sodipodi="http://sodipodi.sourceforge.net/DTD/sodipodi-0.dtd"
   xmlns:inkscape="http://www.inkscape.org/namespaces/inkscape"
   width="330.95346"
   height="52.480007"
   id="svg2"
   version="1.1"
   inkscape:version="0.48.4 r9939"
   sodipodi:docname="dung.svg">
  <defs
     id="defs4">
    <marker
       inkscape:stockid="Arrow2Lend"
       orient="auto"
       refY="0"
       refX="0"
       id="Arrow2Lend"
       style="overflow:visible">
      <path
         id="path3804"
         style="fill-rule:evenodd;stroke-width:0.625;stroke-linejoin:round"
         d="M 8.7185878,4.0337352 -2.2072895,0.01601326 8.7185884,-4.0017078 c -1.7454984,2.3720609 -1.7354408,5.6174519 -6e-7,8.035443 z"
         transform="matrix(-1.1,0,0,-1.1,-1.1,0)"
         inkscape:connector-curvature="0" />
    </marker>
    <marker
       inkscape:stockid="Arrow1Lend"
       orient="auto"
       refY="0"
       refX="0"
       id="Arrow1Lend"
       style="overflow:visible">
      <path
         id="path3786"
         d="M 0,0 5,-5 -12.5,0 5,5 0,0 z"
         style="fill-rule:evenodd;stroke:#000000;stroke-width:1pt"
         transform="matrix(-0.8,0,0,-0.8,-10,0)"
         inkscape:connector-curvature="0" />
    </marker>
  </defs>
  <sodipodi:namedview
     id="base"
     pagecolor="#ffffff"
     bordercolor="#666666"
     borderopacity="1.0"
     inkscape:pageopacity="0.0"
     inkscape:pageshadow="2"
     inkscape:zoom="2.8"
     inkscape:cx="103.62801"
     inkscape:cy="-58.819436"
     inkscape:document-units="px"
     inkscape:current-layer="layer1"
     showgrid="false"
     inkscape:window-width="1600"
     inkscape:window-height="847"
     inkscape:window-x="-8"
     inkscape:window-y="-8"
     inkscape:window-maximized="1"
     fit-margin-top="0"
     fit-margin-left="0"
     fit-margin-right="0"
     fit-margin-bottom="0" />
  <metadata
     id="metadata7">
    <rdf:RDF>
      <cc:Work
         rdf:about="">
        <dc:format>image/svg+xml</dc:format>
        <dc:type
           rdf:resource="http://purl.org/dc/dcmitype/StillImage" />
      </cc:Work>
    </rdf:RDF>
  </metadata>
  <g
     inkscape:groupmode="layer"
     id="layer4"
     inkscape:label="Text"
     style="display:none"
     sodipodi:insensitive="true">
    <g
       transform="translate(-225.68776,-421.06274)"
       style="font-size:19.47270966px;font-style:normal;font-variant:normal;font-weight:normal;font-stretch:normal;line-height:125%;letter-spacing:0px;word-spacing:0px;fill:#000000;fill-opacity:1;stroke:none;font-family:Arial;-inkscape-font-specification:Arial"
       id="use3334">
      <path
         d="m 228.79988,460.24173 0,-13.93896 4.80162,0 c 1.08392,10e-6 1.91113,0.0666 2.48163,0.19967 0.79868,0.18384 1.48009,0.51662 2.04426,0.99836 0.73528,0.62121 1.28517,1.41514 1.64966,2.38179 0.36447,0.96667 0.54671,2.0712 0.54672,3.31359 -1e-5,1.05858 -0.12362,1.99672 -0.37082,2.81442 -0.24722,0.8177 -0.56416,1.49437 -0.95081,2.02999 -0.38668,0.53563 -0.80979,0.95716 -1.26934,1.26459 -0.45957,0.30743 -1.01422,0.54038 -1.66393,0.69885 -0.64973,0.15847 -1.39612,0.2377 -2.23917,0.2377 z m 1.84458,-1.64491 2.97606,0 c 0.91911,0 1.64015,-0.0856 2.1631,-0.25672 0.52294,-0.17115 0.93972,-0.41202 1.25033,-0.72262 0.43736,-0.43737 0.77807,-1.02529 1.02212,-1.76377 0.24404,-0.73846 0.36606,-1.63381 0.36607,-2.68605 -1e-5,-1.45791 -0.2393,-2.57829 -0.71787,-3.36113 -0.47859,-0.78283 -1.06017,-1.30736 -1.74474,-1.57361 -0.49444,-0.19015 -1.28995,-0.28523 -2.38655,-0.28524 l -2.92852,0 z"
         style=""
         id="path3343" />
      <path
         d="m 249.5657,456.98994 1.76852,0.21869 c -0.27892,1.03322 -0.79553,1.83507 -1.54983,2.40556 -0.75432,0.57049 -1.71782,0.85574 -2.89048,0.85574 -1.47694,0 -2.64803,-0.45481 -3.51327,-1.36443 -0.86524,-0.90961 -1.29786,-2.18528 -1.29786,-3.82703 0,-1.69878 0.43737,-3.01725 1.31212,-3.95539 0.87475,-0.93813 2.00939,-1.4072 3.40393,-1.40721 1.35015,1e-5 2.45309,0.45957 3.30884,1.37868 0.85572,0.91913 1.28359,2.21224 1.2836,3.87933 -1e-5,0.10143 -0.003,0.25356 -0.01,0.45639 l -7.53046,0 c 0.0634,1.10929 0.37715,1.95869 0.9413,2.54819 0.56415,0.58951 1.26775,0.88426 2.11082,0.88426 0.62753,0 1.16315,-0.16481 1.60687,-0.49443 0.44371,-0.32961 0.79551,-0.85573 1.05541,-1.57835 z m -5.61932,-2.76687 5.63834,0 c -0.0761,-0.84939 -0.2916,-1.48644 -0.64656,-1.91114 -0.54514,-0.65923 -1.25191,-0.98884 -2.12032,-0.98885 -0.78601,10e-6 -1.44683,0.26306 -1.98245,0.78917 -0.53563,0.52613 -0.83197,1.22973 -0.88901,2.11082 z"
         style=""
         id="path3345" />
      <path
         d="m 255.07092,460.24173 -1.58786,0 0,-13.93896 1.71147,0 0,4.97277 c 0.72262,-0.90644 1.64491,-1.35966 2.76688,-1.35967 0.62119,1e-5 1.20911,0.1252 1.76376,0.37557 0.55463,0.25039 1.01102,0.60219 1.36917,1.05541 0.35814,0.45323 0.63863,0.99995 0.84148,1.64015 0.20283,0.64023 0.30425,1.32481 0.30426,2.05377 -10e-6,1.73049 -0.42788,3.06796 -1.2836,4.01244 -0.85575,0.94448 -1.88263,1.41672 -3.08065,1.41672 -1.19169,0 -2.12666,-0.4976 -2.80491,-1.49279 z m -0.019,-5.1249 c 0,1.21071 0.1648,2.08546 0.49442,2.62425 0.53879,0.88109 1.26775,1.32164 2.18688,1.32164 0.74797,0 1.39452,-0.32486 1.93966,-0.97459 0.54513,-0.64972 0.8177,-1.61797 0.81771,-2.90474 -1e-5,-1.31846 -0.26149,-2.29146 -0.78443,-2.91901 -0.52295,-0.62753 -1.15525,-0.94129 -1.89688,-0.9413 -0.74798,10e-6 -1.39453,0.32487 -1.93966,0.97458 -0.54514,0.64973 -0.8177,1.58946 -0.8177,2.81917 z"
         style=""
         id="path3347" />
      <path
         d="m 263.69483,455.1929 c 0,-1.86993 0.51977,-3.25495 1.55933,-4.15507 0.86841,-0.74796 1.92699,-1.12195 3.17573,-1.12196 1.38818,1e-5 2.52282,0.45482 3.40392,1.36442 0.88108,0.90962 1.32162,2.16628 1.32163,3.76998 -10e-6,1.29946 -0.19492,2.32158 -0.58475,3.06639 -0.38984,0.7448 -0.95716,1.32322 -1.70196,1.73524 -0.74481,0.41202 -1.55776,0.61803 -2.43884,0.61803 -1.41355,0 -2.55611,-0.45323 -3.42769,-1.35967 -0.87158,-0.90644 -1.30737,-2.21223 -1.30737,-3.91736 z m 1.75901,0 c -1e-5,1.29311 0.28207,2.26136 0.84622,2.90474 0.56415,0.64339 1.27409,0.96508 2.12983,0.96508 0.84939,0 1.55616,-0.32328 2.12032,-0.96983 0.56414,-0.64656 0.84622,-1.63223 0.84622,-2.95704 0,-1.24873 -0.28366,-2.19479 -0.85098,-2.83819 -0.56732,-0.64337 -1.27251,-0.96507 -2.11556,-0.96508 -0.85574,10e-6 -1.56568,0.32012 -2.12983,0.96033 -0.56415,0.64022 -0.84623,1.60688 -0.84622,2.89999 z"
         style=""
         id="path3349" />
      <path
         d="m 275.15215,460.24173 0,-10.09767 1.54033,0 0,1.53082 c 0.393,-0.71627 0.75589,-1.18851 1.08868,-1.41672 0.33278,-0.22818 0.69885,-0.34228 1.09819,-0.34229 0.57683,1e-5 1.16316,0.18383 1.75901,0.55147 l -0.5895,1.58786 c -0.41837,-0.2472 -0.83673,-0.3708 -1.25508,-0.37081 -0.37399,10e-6 -0.70995,0.11252 -1.00787,0.33754 -0.29792,0.22503 -0.51027,0.53721 -0.63704,0.93655 -0.19017,0.60853 -0.28525,1.2741 -0.28525,1.99671 l 0,5.28654 z"
         style=""
         id="path3351" />
      <path
         d="m 288.26391,458.99616 c -0.63389,0.5388 -1.24399,0.91912 -1.83032,1.14098 -0.58635,0.22186 -1.21547,0.33279 -1.88737,0.33279 -1.10929,0 -1.96186,-0.27099 -2.5577,-0.81295 -0.59584,-0.54197 -0.89377,-1.23448 -0.89376,-2.07753 -1e-5,-0.49443 0.11251,-0.94606 0.33753,-1.35492 0.22503,-0.40884 0.51978,-0.73688 0.88426,-0.98409 0.36448,-0.24721 0.77492,-0.4342 1.23131,-0.56098 0.33595,-0.0887 0.84305,-0.17431 1.52131,-0.25672 1.38184,-0.16481 2.39921,-0.36131 3.05211,-0.58951 0.006,-0.23453 0.01,-0.38349 0.01,-0.44688 0,-0.69726 -0.16164,-1.18851 -0.48491,-1.47377 -0.43739,-0.38665 -1.08711,-0.57999 -1.94918,-0.58 -0.80502,10e-6 -1.39928,0.14105 -1.78278,0.42312 -0.38349,0.28208 -0.66715,0.78126 -0.85098,1.49753 l -1.67343,-0.22819 c 0.15213,-0.71628 0.40251,-1.29469 0.75114,-1.73524 0.34863,-0.44054 0.85257,-0.77966 1.5118,-1.01737 0.65923,-0.2377 1.42305,-0.35655 2.29147,-0.35656 0.86206,1e-5 1.5625,0.10143 2.1013,0.30426 0.53879,0.20285 0.93496,0.45799 1.18852,0.76541 0.25354,0.30744 0.43103,0.69569 0.53246,1.16475 0.057,0.29159 0.0856,0.81771 0.0856,1.57835 l 0,2.28196 c -10e-6,1.59103 0.0364,2.59731 0.10934,3.01884 0.0729,0.42153 0.2171,0.82562 0.43262,1.21229 l -1.78753,0 c -0.17749,-0.35497 -0.29159,-0.77016 -0.34229,-1.24557 z m -0.14263,-3.82228 c -0.6212,0.25356 -1.553,0.46907 -2.79539,0.64656 -0.70361,0.10142 -1.20121,0.21552 -1.49279,0.34229 -0.29158,0.12678 -0.51661,0.31219 -0.67507,0.55623 -0.15848,0.24404 -0.23771,0.51503 -0.23771,0.81294 0,0.4564 0.17273,0.83672 0.5182,1.14098 0.34546,0.30427 0.85097,0.4564 1.51655,0.4564 0.65922,0 1.24556,-0.14421 1.75901,-0.43263 0.51343,-0.28841 0.89059,-0.683 1.13147,-1.18376 0.18381,-0.38666 0.27573,-0.95715 0.27573,-1.71147 z"
         style=""
         id="path3353" />
      <path
         d="m 292.51405,460.24173 0,-13.93896 1.71147,0 0,5.00129 c 0.79869,-0.92545 1.80655,-1.38818 3.0236,-1.38819 0.74797,1e-5 1.39769,0.14739 1.94917,0.44213 0.55147,0.29476 0.94605,0.70203 1.18377,1.2218 0.23769,0.51978 0.35654,1.2741 0.35655,2.26294 l 0,6.39899 -1.71147,0 0,-6.39899 c 0,-0.85573 -0.18541,-1.47851 -0.55622,-1.86835 -0.37083,-0.38983 -0.89536,-0.58475 -1.5736,-0.58476 -0.50711,10e-6 -0.9841,0.13154 -1.43098,0.39459 -0.44689,0.26307 -0.76541,0.61963 -0.95557,1.06967 -0.19017,0.45006 -0.28525,1.07126 -0.28525,1.8636 l 0,5.52424 z"
         style=""
         id="path3355" />
      <path
         d="m 318.11953,446.30277 1.84458,0 0,8.05341 c -1e-5,1.40087 -0.15848,2.51333 -0.47541,3.33736 -0.31695,0.82405 -0.88902,1.49437 -1.71622,2.01098 -0.82722,0.51661 -1.91273,0.77491 -3.25654,0.77491 -1.3058,0 -2.37388,-0.22502 -3.20425,-0.67508 -0.83039,-0.45005 -1.42306,-1.10136 -1.77803,-1.95392 -0.35497,-0.85256 -0.53246,-2.01731 -0.53246,-3.49425 l 0,-8.05341 1.84459,0 0,8.0439 c -1e-5,1.21071 0.11251,2.10289 0.33754,2.67655 0.22502,0.57366 0.61168,1.01579 1.15999,1.32639 0.5483,0.3106 1.21862,0.4659 2.01098,0.4659 1.35649,0 2.32315,-0.30743 2.89999,-0.9223 0.57681,-0.61485 0.86523,-1.79703 0.86524,-3.54654 z"
         style=""
         id="path3357" />
      <path
         d="m 322.82607,460.24173 0,-10.09767 1.54032,0 0,1.43574 c 0.74163,-1.10928 1.81288,-1.66392 3.21376,-1.66393 0.60851,1e-5 1.16791,0.10935 1.67819,0.32803 0.51026,0.2187 0.89217,0.50553 1.14573,0.86049 0.25354,0.35498 0.43103,0.77651 0.53246,1.26458 0.0634,0.31695 0.0951,0.87159 0.0951,1.66393 l 0,6.20883 -1.71147,0 0,-6.14227 c -10e-6,-0.69726 -0.0666,-1.21862 -0.19967,-1.56409 -0.13312,-0.34546 -0.36924,-0.62119 -0.70836,-0.82721 -0.33913,-0.206 -0.73689,-0.30901 -1.19327,-0.30902 -0.72897,1e-5 -1.35809,0.23138 -1.88737,0.6941 -0.52929,0.46274 -0.79394,1.34065 -0.79393,2.63376 l 0,5.51473 z"
         style=""
         id="path3359" />
      <path
         d="m 333.35159,461.07845 1.66393,0.24721 c 0.0697,0.51344 0.26306,0.88743 0.58,1.12196 0.42469,0.31694 1.00469,0.47541 1.73999,0.47541 0.79234,0 1.40403,-0.15847 1.83508,-0.47541 0.43102,-0.31694 0.72261,-0.76065 0.87475,-1.33114 0.0887,-0.34863 0.12993,-1.08076 0.1236,-2.19638 -0.74798,0.88109 -1.67978,1.32163 -2.7954,1.32163 -1.38819,0 -2.46261,-0.50076 -3.22326,-1.50229 -0.76066,-1.00152 -1.14098,-2.20272 -1.14098,-3.60359 0,-0.96349 0.17431,-1.8525 0.52295,-2.66704 0.34863,-0.81452 0.85414,-1.44365 1.51655,-1.88737 0.6624,-0.4437 1.44048,-0.66556 2.33425,-0.66557 1.19168,1e-5 2.17419,0.48176 2.94753,1.44524 l 0,-1.21705 1.57835,0 0,8.72849 c 0,1.57202 -0.16006,2.68606 -0.48016,3.34212 -0.32011,0.65606 -0.82722,1.17426 -1.5213,1.55459 -0.6941,0.38032 -1.54825,0.57048 -2.56245,0.57049 -1.20437,-10e-6 -2.17737,-0.27099 -2.91901,-0.81295 -0.74163,-0.54197 -1.09977,-1.35809 -1.07442,-2.44835 z m 1.41672,-6.06621 c 0,1.32481 0.26305,2.29147 0.78917,2.89999 0.52612,0.60852 1.18535,0.91279 1.9777,0.91278 0.786,10e-6 1.44524,-0.30267 1.9777,-0.90803 0.53245,-0.60535 0.79868,-1.55458 0.79868,-2.84769 0,-1.23605 -0.27416,-2.16785 -0.82245,-2.7954 -0.54831,-0.62753 -1.20913,-0.9413 -1.98245,-0.94131 -0.76066,10e-6 -1.40721,0.30903 -1.93967,0.92705 -0.53246,0.61804 -0.79868,1.53557 -0.79868,2.75261 z"
         style=""
         id="path3361" />
      <path
         d="m 363.40688,451.91258 c 0.84304,0.91913 1.572,1.61798 2.18688,2.09655 0.61484,0.47858 1.19484,0.83514 1.73999,1.06967 l 0,0.42787 c -0.62755,0.30426 -1.23607,0.69251 -1.82556,1.16475 -0.58953,0.47224 -1.29313,1.16475 -2.11081,2.07753 l -0.73213,0 c 0.59583,-1.27409 1.2202,-2.25343 1.8731,-2.93802 l -15.16551,0 0,-0.96033 15.16551,0 c -0.48176,-0.61485 -0.81771,-1.07124 -1.00786,-1.36917 -0.19018,-0.29792 -0.47225,-0.82086 -0.84623,-1.56885 z"
         style=""
         id="path3363" />
      <path
         d="m 381.32976,460.24173 0,-1.27409 c -0.64022,1.00152 -1.58153,1.50229 -2.82392,1.50229 -0.80503,0 -1.54508,-0.22186 -2.22015,-0.66558 -0.67509,-0.44371 -1.19803,-1.06332 -1.56885,-1.85884 -0.37082,-0.79551 -0.55623,-1.70988 -0.55623,-2.7431 0,-1.00786 0.16798,-1.92223 0.50393,-2.74311 0.33596,-0.82086 0.83989,-1.44998 1.5118,-1.88737 0.67191,-0.43736 1.42305,-0.65605 2.25344,-0.65606 0.60851,1e-5 1.15048,0.12837 1.62589,0.38508 0.4754,0.25673 0.86207,0.5911 1.16,1.00311 l 0,-5.00129 1.70196,0 0,13.93896 z m -5.41014,-5.03932 c 0,1.29311 0.27257,2.25977 0.8177,2.89998 0.54513,0.64022 1.18852,0.96033 1.93016,0.96033 0.74797,0 1.38343,-0.30585 1.90639,-0.91754 0.52294,-0.61169 0.78441,-1.54507 0.78442,-2.80015 -1e-5,-1.38185 -0.26624,-2.39605 -0.79869,-3.04261 -0.53246,-0.64655 -1.18852,-0.96983 -1.96819,-0.96984 -0.76065,10e-6 -1.39611,0.31061 -1.90638,0.9318 -0.51028,0.62121 -0.76541,1.60055 -0.76541,2.93803 z"
         style=""
         id="path3365" />
      <path
         d="m 392.23563,460.24173 0,-1.48327 c -0.78601,1.14098 -1.8541,1.71147 -3.20425,1.71147 -0.59585,0 -1.15207,-0.1141 -1.66868,-0.3423 -0.51661,-0.22819 -0.90011,-0.51502 -1.15049,-0.86049 -0.25038,-0.34546 -0.42628,-0.76857 -0.5277,-1.26934 -0.0697,-0.33595 -0.10459,-0.8684 -0.10459,-1.59737 l 0,-6.25637 1.71147,0 0,5.60031 c 0,0.89377 0.0349,1.49595 0.10459,1.80655 0.10775,0.45006 0.33595,0.80344 0.68459,1.06016 0.34862,0.25672 0.77966,0.38508 1.2931,0.38508 0.51344,0 0.99519,-0.13153 1.44525,-0.39459 0.45004,-0.26305 0.76856,-0.6212 0.95557,-1.07442 0.18698,-0.45322 0.28048,-1.11087 0.28049,-1.97294 l 0,-5.41015 1.71146,0 0,10.09767 z"
         style=""
         id="path3367" />
      <path
         d="m 396.45725,460.24173 0,-10.09767 1.54032,0 0,1.43574 c 0.74163,-1.10928 1.81288,-1.66392 3.21376,-1.66393 0.60851,1e-5 1.16791,0.10935 1.67819,0.32803 0.51026,0.2187 0.89217,0.50553 1.14573,0.86049 0.25354,0.35498 0.43103,0.77651 0.53246,1.26458 0.0634,0.31695 0.0951,0.87159 0.0951,1.66393 l 0,6.20883 -1.71147,0 0,-6.14227 c -1e-5,-0.69726 -0.0666,-1.21862 -0.19967,-1.56409 -0.13312,-0.34546 -0.36924,-0.62119 -0.70836,-0.82721 -0.33913,-0.206 -0.73689,-0.30901 -1.19327,-0.30902 -0.72897,1e-5 -1.35809,0.23138 -1.88737,0.6941 -0.52929,0.46274 -0.79394,1.34065 -0.79393,2.63376 l 0,5.51473 z"
         style=""
         id="path3369" />
      <path
         d="m 406.98277,461.07845 1.66393,0.24721 c 0.0697,0.51344 0.26306,0.88743 0.58,1.12196 0.42469,0.31694 1.00469,0.47541 1.73999,0.47541 0.79234,0 1.40403,-0.15847 1.83507,-0.47541 0.43103,-0.31694 0.72262,-0.76065 0.87476,-1.33114 0.0887,-0.34863 0.12993,-1.08076 0.1236,-2.19638 -0.74798,0.88109 -1.67978,1.32163 -2.7954,1.32163 -1.38819,0 -2.46261,-0.50076 -3.22326,-1.50229 -0.76066,-1.00152 -1.14098,-2.20272 -1.14098,-3.60359 0,-0.96349 0.17431,-1.8525 0.52295,-2.66704 0.34863,-0.81452 0.85414,-1.44365 1.51655,-1.88737 0.6624,-0.4437 1.44048,-0.66556 2.33425,-0.66557 1.19168,1e-5 2.17419,0.48176 2.94753,1.44524 l 0,-1.21705 1.57835,0 0,8.72849 c 0,1.57202 -0.16006,2.68606 -0.48016,3.34212 -0.32011,0.65606 -0.82722,1.17426 -1.5213,1.55459 -0.69411,0.38032 -1.54825,0.57048 -2.56245,0.57049 -1.20437,-10e-6 -2.17737,-0.27099 -2.91901,-0.81295 -0.74163,-0.54197 -1.09977,-1.35809 -1.07442,-2.44835 z m 1.41672,-6.06621 c -1e-5,1.32481 0.26305,2.29147 0.78917,2.89999 0.52612,0.60852 1.18535,0.91279 1.9777,0.91278 0.786,10e-6 1.44524,-0.30267 1.9777,-0.90803 0.53245,-0.60535 0.79868,-1.55458 0.79868,-2.84769 0,-1.23605 -0.27416,-2.16785 -0.82245,-2.7954 -0.54831,-0.62753 -1.20913,-0.9413 -1.98245,-0.94131 -0.76066,10e-6 -1.40721,0.30903 -1.93967,0.92705 -0.53246,0.61804 -0.79869,1.53557 -0.79868,2.75261 z"
         style=""
         id="path3371" />
      <path
         d="m 427.89122,458.6919 c -0.41203,0.47541 -0.87317,0.85732 -1.38344,1.14573 -0.51028,0.28842 -1.02213,0.43262 -1.53556,0.43262 -0.56416,0 -1.11246,-0.1648 -1.64491,-0.49442 -0.53247,-0.32962 -0.96509,-0.83672 -1.29787,-1.52131 -0.33279,-0.68458 -0.49918,-1.43572 -0.49918,-2.25343 0,-1.00786 0.2583,-2.01731 0.77492,-3.02835 0.5166,-1.01102 1.1584,-1.77009 1.9254,-2.2772 0.76698,-0.50709 1.51179,-0.76064 2.23442,-0.76065 0.55146,1e-5 1.07758,0.14421 1.57835,0.43262 0.50075,0.28842 0.93179,0.72738 1.29311,1.31688 l 0.32328,-1.47377 1.70196,0 -1.36918,6.37998 c -0.19017,0.88743 -0.28525,1.37868 -0.28524,1.47376 -1e-5,0.17115 0.065,0.31853 0.19492,0.44213 0.12993,0.12361 0.28681,0.18541 0.47065,0.18541 0.33594,0 0.77649,-0.19333 1.32164,-0.58 0.7226,-0.5071 1.29467,-1.18693 1.71622,-2.0395 0.42151,-0.85256 0.63227,-1.73206 0.63229,-2.63851 -2e-5,-1.05857 -0.271,-2.04742 -0.81295,-2.96655 -0.54198,-0.91911 -1.35017,-1.65441 -2.42458,-2.20589 -1.07443,-0.55146 -2.26137,-0.8272 -3.5608,-0.82721 -1.48328,1e-5 -2.8382,0.34706 -4.06474,1.04114 -1.22656,0.69411 -2.17737,1.6893 -2.85245,2.98556 -0.67508,1.29629 -1.01262,2.68607 -1.01262,4.16933 0,1.553 0.33754,2.89048 1.01262,4.01245 0.67508,1.12196 1.65125,1.95075 2.92851,2.48638 1.27726,0.53562 2.69239,0.80344 4.2454,0.80344 1.66074,0 3.0521,-0.27891 4.17408,-0.83672 1.12195,-0.55781 1.96183,-1.23606 2.51966,-2.03475 l 1.72098,0 c -0.3233,0.66558 -0.87794,1.34382 -1.66393,2.03475 -0.78602,0.69092 -1.72099,1.23764 -2.80491,1.64016 -1.08394,0.40251 -2.38973,0.60376 -3.91736,0.60377 -1.40722,-10e-6 -2.70508,-0.18066 -3.89359,-0.54197 -1.18852,-0.36131 -2.20114,-0.90486 -3.03786,-1.63065 -0.83672,-0.72579 -1.46742,-1.56092 -1.89212,-2.5054 -0.53246,-1.19802 -0.79869,-2.49113 -0.79869,-3.87933 0,-1.54665 0.31694,-3.02041 0.95082,-4.42129 0.77333,-1.7178 1.87152,-3.03309 3.29458,-3.94589 1.42305,-0.91277 3.14877,-1.36916 5.17719,-1.36917 1.572,1e-5 2.98396,0.3217 4.23589,0.96508 1.25189,0.64339 2.23915,1.60213 2.96179,2.87621 0.61484,1.09662 0.92227,2.28831 0.92229,3.57507 -2e-5,1.83825 -0.64657,3.47048 -1.93967,4.8967 -1.15367,1.28044 -2.41508,1.92065 -3.78424,1.92065 -0.43739,0 -0.79078,-0.0666 -1.06016,-0.19967 -0.26941,-0.13311 -0.4675,-0.32328 -0.59426,-0.57049 -0.0824,-0.15847 -0.14264,-0.43103 -0.18066,-0.8177 z m -4.60195,-2.57671 c 0,0.86841 0.20601,1.54349 0.61803,2.02524 0.41202,0.48174 0.88425,0.72262 1.41672,0.72262 0.35496,0 0.72895,-0.10618 1.12196,-0.31853 0.393,-0.21234 0.76857,-0.5277 1.12672,-0.94606 0.35813,-0.41835 0.6513,-0.94923 0.8795,-1.59262 0.22819,-0.64338 0.34228,-1.28835 0.3423,-1.93491 -2e-5,-0.86206 -0.21395,-1.5308 -0.6418,-2.00622 -0.42788,-0.4754 -0.94925,-0.7131 -1.5641,-0.71311 -0.40569,10e-6 -0.7876,0.10301 -1.14573,0.30902 -0.35815,0.20601 -0.7052,0.53722 -1.04114,0.9936 -0.33596,0.4564 -0.60536,1.01104 -0.8082,1.66393 -0.20284,0.6529 -0.30426,1.25191 -0.30426,1.79704 z"
         style=""
         id="path3373" />
      <path
         d="m 444.50197,456.54306 1.68294,0.21868 c -0.18383,1.16 -0.65449,2.06803 -1.41196,2.72409 -0.75749,0.65606 -1.68771,0.9841 -2.79065,0.9841 -1.38185,0 -2.49272,-0.45164 -3.3326,-1.35492 -0.83989,-0.90327 -1.25984,-2.19796 -1.25984,-3.88408 0,-1.09026 0.18066,-2.04425 0.54197,-2.86196 0.36131,-0.81769 0.9112,-1.43096 1.64966,-1.83982 0.73847,-0.40885 1.54191,-0.61327 2.41032,-0.61328 1.0966,1e-5 1.99354,0.27733 2.69081,0.83196 0.69726,0.55465 1.14414,1.34225 1.34065,2.36278 l -1.66393,0.25672 c -0.15847,-0.67824 -0.43896,-1.18851 -0.84147,-1.53081 -0.40252,-0.34229 -0.88902,-0.51343 -1.4595,-0.51344 -0.86208,10e-6 -1.56251,0.30902 -2.1013,0.92704 -0.5388,0.61804 -0.8082,1.59579 -0.8082,2.93327 0,1.3565 0.25989,2.34218 0.77967,2.95704 0.51978,0.61486 1.19803,0.92229 2.03475,0.92229 0.6719,0 1.23288,-0.20601 1.68294,-0.61803 0.45005,-0.41202 0.73529,-1.0459 0.85574,-1.90163 z"
         style=""
         id="path3375" />
      <path
         d="m 447.01212,455.1929 c 0,-1.86993 0.51978,-3.25495 1.55934,-4.15507 0.86841,-0.74796 1.92699,-1.12195 3.17573,-1.12196 1.38818,1e-5 2.52282,0.45482 3.40392,1.36442 0.88108,0.90962 1.32162,2.16628 1.32163,3.76998 -10e-6,1.29946 -0.19492,2.32158 -0.58475,3.06639 -0.38984,0.7448 -0.95716,1.32322 -1.70196,1.73524 -0.74481,0.41202 -1.55776,0.61803 -2.43884,0.61803 -1.41355,0 -2.55611,-0.45323 -3.42769,-1.35967 -0.87159,-0.90644 -1.30738,-2.21223 -1.30738,-3.91736 z m 1.75901,0 c 0,1.29311 0.28208,2.26136 0.84623,2.90474 0.56415,0.64339 1.27409,0.96508 2.12983,0.96508 0.84939,0 1.55616,-0.32328 2.12032,-0.96983 0.56414,-0.64656 0.84622,-1.63223 0.84622,-2.95704 0,-1.24873 -0.28366,-2.19479 -0.85098,-2.83819 -0.56732,-0.64337 -1.27251,-0.96507 -2.11556,-0.96508 -0.85574,10e-6 -1.56568,0.32012 -2.12983,0.96033 -0.56415,0.64022 -0.84623,1.60688 -0.84623,2.89999 z"
         style=""
         id="path3377" />
      <path
         d="m 458.48848,460.24173 0,-10.09767 1.53081,0 0,1.41672 c 0.31694,-0.49441 0.73847,-0.89217 1.26459,-1.19327 0.52611,-0.30108 1.12513,-0.45163 1.79704,-0.45164 0.74797,1e-5 1.36125,0.15531 1.83983,0.4659 0.47857,0.31061 0.81611,0.74481 1.01262,1.30262 0.79868,-1.17901 1.83823,-1.76851 3.11868,-1.76852 1.00151,1e-5 1.77167,0.27733 2.31048,0.83196 0.53878,0.55465 0.80818,1.4088 0.80819,2.56245 l 0,6.93145 -1.70196,0 0,-6.36096 c -10e-6,-0.68458 -0.0555,-1.17742 -0.16639,-1.47852 -0.11094,-0.30108 -0.3122,-0.54354 -0.60377,-0.72737 -0.2916,-0.18382 -0.63389,-0.27573 -1.02688,-0.27574 -0.70995,1e-5 -1.29946,0.23613 -1.76852,0.70836 -0.46908,0.47225 -0.70361,1.22814 -0.7036,2.2677 l 0,5.86653 -1.71147,0 0,-6.56063 c -1e-5,-0.76065 -0.13946,-1.33113 -0.41836,-1.71147 -0.27891,-0.38032 -0.7353,-0.57048 -1.36917,-0.57049 -0.48176,1e-5 -0.92705,0.12679 -1.3359,0.38033 -0.40886,0.25356 -0.70519,0.62438 -0.88901,1.11245 -0.18383,0.4881 -0.27574,1.1917 -0.27574,2.11081 l 0,5.239 z"
         style=""
         id="path3379" />
      <path
         d="m 474.72841,464.11155 0,-13.96749 1.55934,0 0,1.31213 c 0.36764,-0.51343 0.78283,-0.89851 1.24557,-1.15524 0.46272,-0.25671 1.0237,-0.38507 1.68294,-0.38508 0.86207,1e-5 1.62272,0.22187 2.28196,0.66557 0.65922,0.44372 1.15682,1.06968 1.49278,1.87786 0.33595,0.8082 0.50392,1.69404 0.50393,2.65753 -1e-5,1.03323 -0.18542,1.96344 -0.55622,2.79065 -0.37083,0.82721 -0.90963,1.46108 -1.61639,1.90163 -0.70678,0.44054 -1.45,0.66082 -2.22966,0.66082 -0.5705,0 -1.08235,-0.12044 -1.53557,-0.36131 -0.45323,-0.24088 -0.82563,-0.54514 -1.11721,-0.91279 l 0,4.91572 z m 1.54983,-8.8616 c 0,1.29945 0.26306,2.25977 0.78918,2.88097 0.52611,0.6212 1.16316,0.9318 1.91114,0.9318 0.76064,0 1.41195,-0.32169 1.95392,-0.96508 0.54196,-0.64338 0.81294,-1.64015 0.81295,-2.99032 -10e-6,-1.28676 -0.26465,-2.25025 -0.79393,-2.89048 -0.52929,-0.6402 -1.16159,-0.96031 -1.89688,-0.96032 -0.72896,10e-6 -1.37393,0.34072 -1.93491,1.02213 -0.56098,0.68142 -0.84147,1.67185 -0.84147,2.9713 z"
         style=""
         id="path3381" />
      <path
         d="m 492.15686,458.99616 c -0.63389,0.5388 -1.24399,0.91912 -1.83032,1.14098 -0.58634,0.22186 -1.21547,0.33279 -1.88737,0.33279 -1.10929,0 -1.96185,-0.27099 -2.5577,-0.81295 -0.59584,-0.54197 -0.89376,-1.23448 -0.89376,-2.07753 0,-0.49443 0.11251,-0.94606 0.33754,-1.35492 0.22502,-0.40884 0.51977,-0.73688 0.88426,-0.98409 0.36447,-0.24721 0.77491,-0.4342 1.2313,-0.56098 0.33595,-0.0887 0.84305,-0.17431 1.52131,-0.25672 1.38184,-0.16481 2.39922,-0.36131 3.05212,-0.58951 0.006,-0.23453 0.01,-0.38349 0.01,-0.44688 0,-0.69726 -0.16164,-1.18851 -0.48491,-1.47377 -0.43738,-0.38665 -1.08711,-0.57999 -1.94917,-0.58 -0.80503,10e-6 -1.39929,0.14105 -1.78278,0.42312 -0.3835,0.28208 -0.66716,0.78126 -0.85098,1.49753 l -1.67344,-0.22819 c 0.15213,-0.71628 0.40251,-1.29469 0.75114,-1.73524 0.34864,-0.44054 0.85257,-0.77966 1.5118,-1.01737 0.65923,-0.2377 1.42305,-0.35655 2.29147,-0.35656 0.86206,1e-5 1.5625,0.10143 2.1013,0.30426 0.53879,0.20285 0.93496,0.45799 1.18852,0.76541 0.25354,0.30744 0.43103,0.69569 0.53246,1.16475 0.057,0.29159 0.0856,0.81771 0.0856,1.57835 l 0,2.28196 c -10e-6,1.59103 0.0364,2.59731 0.10935,3.01884 0.0729,0.42153 0.21709,0.82562 0.43262,1.21229 l -1.78754,0 c -0.17749,-0.35497 -0.29159,-0.77016 -0.34229,-1.24557 z m -0.14262,-3.82228 c -0.62121,0.25356 -1.55301,0.46907 -2.7954,0.64656 -0.70361,0.10142 -1.2012,0.21552 -1.49278,0.34229 -0.29159,0.12678 -0.51662,0.31219 -0.67508,0.55623 -0.15847,0.24404 -0.23771,0.51503 -0.23771,0.81294 0,0.4564 0.17273,0.83672 0.5182,1.14098 0.34546,0.30427 0.85097,0.4564 1.51655,0.4564 0.65923,0 1.24556,-0.14421 1.75901,-0.43263 0.51343,-0.28841 0.89059,-0.683 1.13147,-1.18376 0.18382,-0.38666 0.27573,-0.95715 0.27574,-1.71147 z"
         style=""
         id="path3383" />
      <path
         d="m 496.407,460.24173 0,-10.09767 1.54032,0 0,1.43574 c 0.74163,-1.10928 1.81289,-1.66392 3.21376,-1.66393 0.60851,1e-5 1.16791,0.10935 1.67819,0.32803 0.51026,0.2187 0.89217,0.50553 1.14573,0.86049 0.25354,0.35498 0.43103,0.77651 0.53246,1.26458 0.0634,0.31695 0.0951,0.87159 0.0951,1.66393 l 0,6.20883 -1.71147,0 0,-6.14227 c -1e-5,-0.69726 -0.0666,-1.21862 -0.19967,-1.56409 -0.13312,-0.34546 -0.36924,-0.62119 -0.70836,-0.82721 -0.33913,-0.206 -0.73689,-0.30901 -1.19327,-0.30902 -0.72897,1e-5 -1.35809,0.23138 -1.88737,0.6941 -0.52929,0.46274 -0.79394,1.34065 -0.79393,2.63376 l 0,5.51473 z"
         style=""
         id="path3385" />
      <path
         d="m 507.17026,464.13057 -0.19016,-1.60688 c 0.37398,0.10142 0.70043,0.15213 0.97934,0.15213 0.38032,0 0.68458,-0.0634 0.91278,-0.19016 0.22819,-0.12678 0.41519,-0.30427 0.56098,-0.53246 0.10776,-0.17115 0.28207,-0.59585 0.52295,-1.27409 0.0317,-0.0951 0.0824,-0.23454 0.15213,-0.41836 l -3.83179,-10.11669 1.84458,0 2.10131,5.84752 c 0.27256,0.74164 0.5166,1.52131 0.73213,2.33901 0.19649,-0.78601 0.43103,-1.553 0.7036,-2.30097 l 2.15835,-5.88556 1.71147,0 -3.8413,10.26882 c -0.41202,1.10928 -0.73213,1.8731 -0.96032,2.29146 -0.30427,0.56415 -0.6529,0.97776 -1.0459,1.24082 -0.393,0.26305 -0.86207,0.39458 -1.4072,0.39459 -0.32962,-10e-6 -0.69727,-0.0697 -1.10295,-0.20918 z"
         style=""
         id="path3387" />
      <path
         d="m 517.4676,460.24173 0,-1.94917 1.94917,0 0,1.94917 z"
         style=""
         id="path3389" />
      <path
         d="m 528.97244,456.54306 1.68295,0.21868 c -0.18384,1.16 -0.65449,2.06803 -1.41197,2.72409 -0.75749,0.65606 -1.6877,0.9841 -2.79064,0.9841 -1.38186,0 -2.49273,-0.45164 -3.33261,-1.35492 -0.83989,-0.90327 -1.25983,-2.19796 -1.25983,-3.88408 0,-1.09026 0.18065,-2.04425 0.54196,-2.86196 0.36131,-0.81769 0.9112,-1.43096 1.64967,-1.83982 0.73846,-0.40885 1.5419,-0.61327 2.41032,-0.61328 1.0966,1e-5 1.99353,0.27733 2.69081,0.83196 0.69725,0.55465 1.14414,1.34225 1.34065,2.36278 l -1.66393,0.25672 c -0.15848,-0.67824 -0.43897,-1.18851 -0.84147,-1.53081 -0.40252,-0.34229 -0.88902,-0.51343 -1.45951,-0.51344 -0.86207,10e-6 -1.56251,0.30902 -2.1013,0.92704 -0.5388,0.61804 -0.80819,1.59579 -0.80819,2.93327 0,1.3565 0.25988,2.34218 0.77967,2.95704 0.51977,0.61486 1.19802,0.92229 2.03474,0.92229 0.67191,0 1.23289,-0.20601 1.68295,-0.61803 0.45004,-0.41202 0.73529,-1.0459 0.85573,-1.90163 z"
         style=""
         id="path3391" />
      <path
         d="m 531.4826,455.1929 c 0,-1.86993 0.51978,-3.25495 1.55934,-4.15507 0.86841,-0.74796 1.92698,-1.12195 3.17572,-1.12196 1.38819,1e-5 2.52283,0.45482 3.40392,1.36442 0.88108,0.90962 1.32163,2.16628 1.32164,3.76998 -10e-6,1.29946 -0.19493,2.32158 -0.58475,3.06639 -0.38985,0.7448 -0.95717,1.32322 -1.70196,1.73524 -0.74482,0.41202 -1.55776,0.61803 -2.43885,0.61803 -1.41355,0 -2.55611,-0.45323 -3.42769,-1.35967 -0.87158,-0.90644 -1.30737,-2.21223 -1.30737,-3.91736 z m 1.75901,0 c 0,1.29311 0.28207,2.26136 0.84622,2.90474 0.56415,0.64339 1.27409,0.96508 2.12983,0.96508 0.84939,0 1.55616,-0.32328 2.12032,-0.96983 0.56414,-0.64656 0.84622,-1.63223 0.84623,-2.95704 -10e-6,-1.24873 -0.28367,-2.19479 -0.85098,-2.83819 -0.56733,-0.64337 -1.27252,-0.96507 -2.11557,-0.96508 -0.85574,10e-6 -1.56568,0.32012 -2.12983,0.96033 -0.56415,0.64022 -0.84622,1.60688 -0.84622,2.89999 z"
         style=""
         id="path3393" />
      <path
         d="m 542.95897,460.24173 0,-10.09767 1.53081,0 0,1.41672 c 0.31694,-0.49441 0.73847,-0.89217 1.26459,-1.19327 0.52611,-0.30108 1.12513,-0.45163 1.79704,-0.45164 0.74797,1e-5 1.36125,0.15531 1.83983,0.4659 0.47857,0.31061 0.81611,0.74481 1.01262,1.30262 0.79868,-1.17901 1.83823,-1.76851 3.11868,-1.76852 1.00151,1e-5 1.77167,0.27733 2.31048,0.83196 0.53878,0.55465 0.80818,1.4088 0.80819,2.56245 l 0,6.93145 -1.70196,0 0,-6.36096 c -10e-6,-0.68458 -0.0555,-1.17742 -0.16639,-1.47852 -0.11094,-0.30108 -0.3122,-0.54354 -0.60377,-0.72737 -0.2916,-0.18382 -0.63389,-0.27573 -1.02688,-0.27574 -0.70995,1e-5 -1.29946,0.23613 -1.76852,0.70836 -0.46908,0.47225 -0.70361,1.22814 -0.7036,2.2677 l 0,5.86653 -1.71147,0 0,-6.56063 c -10e-6,-0.76065 -0.13946,-1.33113 -0.41836,-1.71147 -0.27891,-0.38032 -0.7353,-0.57048 -1.36917,-0.57049 -0.48176,1e-5 -0.92705,0.12679 -1.3359,0.38033 -0.40886,0.25356 -0.70519,0.62438 -0.88901,1.11245 -0.18383,0.4881 -0.27574,1.1917 -0.27574,2.11081 l 0,5.239 z"
         style=""
         id="path3395" />
    </g>
  </g>
  <g
     inkscape:label="Paths"
     inkscape:groupmode="layer"
     id="layer1"
     transform="translate(-225.68776,-421.06274)"
     style="display:inline">
    <use
       x="0"
       y="0"
       xlink:href="#path2989"
       id="use2997"
       transform="matrix(0.86657727,0,0,1.1728815,176.63224,-78.548296)"
       width="744.09448"
       height="1052.3622"
       style="stroke:#009700;stroke-width:2.05415678;stroke-opacity:1" />
    <path
       transform="matrix(1.2170444,0,0,0.6432949,318.22932,159.79098)"
       d="m 81.822357,457.88742 a 14.142136,23.842852 0 1 1 -28.284271,0 14.142136,23.842852 0 1 1 28.284271,0 z"
       sodipodi:ry="23.842852"
       sodipodi:rx="14.142136"
       sodipodi:cy="457.88742"
       sodipodi:cx="67.680222"
       id="use3001"
       style="fill:#000000;fill-opacity:0;stroke:#009700;stroke-width:2.26032925;stroke-linecap:round;stroke-linejoin:round;stroke-miterlimit:4;stroke-opacity:1;stroke-dasharray:none"
       sodipodi:type="arc" />
    <path
       sodipodi:type="arc"
       style="fill:#000000;fill-opacity:0;stroke:#009700;stroke-width:4.10831356;stroke-linecap:round;stroke-linejoin:round;stroke-miterlimit:4;stroke-opacity:1;stroke-dasharray:none"
       id="path2989"
       sodipodi:cx="67.680222"
       sodipodi:cy="457.88742"
       sodipodi:rx="14.142136"
       sodipodi:ry="28.284271"
       d="m 81.822357,457.88742 a 14.142136,28.284271 0 1 1 -28.284271,0 14.142136,28.284271 0 1 1 28.284271,0 z"
       transform="matrix(0.48681775,0,0,0.48681775,200.62447,231.43989)" />
    <path
       transform="matrix(1.5653629,0,0,0.48681775,219.28226,231.43989)"
       d="m 81.822357,457.88742 a 14.142136,28.284271 0 1 1 -28.284271,0 14.142136,28.284271 0 1 1 28.284271,0 z"
       sodipodi:ry="28.284271"
       sodipodi:rx="14.142136"
       sodipodi:cy="457.88742"
       sodipodi:cx="67.680222"
       id="use2991"
       style="fill:#000000;fill-opacity:0;stroke:#009700;stroke-width:2.29107499;stroke-linecap:round;stroke-linejoin:round;stroke-miterlimit:4;stroke-opacity:1;stroke-dasharray:none"
       sodipodi:type="arc" />
    <path
       style="fill:none;stroke:#009700;stroke-width:1.5;stroke-linecap:butt;stroke-linejoin:miter;stroke-miterlimit:4;stroke-opacity:1;stroke-dasharray:none;marker-end:url(#Arrow2Lend)"
       d="m 233.90441,440.32743 c 44.20389,-14.7374 90.16125,-19.44892 140.42869,0.48355"
       id="path3005"
       inkscape:connector-curvature="0"
       sodipodi:nodetypes="cc" />
    <path
       sodipodi:nodetypes="cc"
       inkscape:connector-curvature="0"
       id="use3007"
       d="m 332.04679,440.27355 c 17.35954,-16.31112 37.98669,-20.4249 61.70569,-1.96717"
       style="fill:none;stroke:#009700;stroke-width:1.5;stroke-linecap:butt;stroke-linejoin:miter;stroke-miterlimit:4;stroke-opacity:1;stroke-dasharray:none;marker-end:url(#Arrow2Lend)" />
    <g
       style="font-size:19.47270966px;font-style:normal;font-variant:normal;font-weight:normal;font-stretch:normal;line-height:125%;letter-spacing:0px;word-spacing:0px;fill:#000000;fill-opacity:1;stroke:none;font-family:Arial;-inkscape-font-specification:Arial"
       id="text2985">
      <path
         d="m 228.79988,460.24173 0,-13.93896 4.80162,0 c 1.08392,10e-6 1.91113,0.0666 2.48163,0.19967 0.79868,0.18384 1.48009,0.51662 2.04426,0.99836 0.73528,0.62121 1.28517,1.41514 1.64966,2.38179 0.36447,0.96667 0.54671,2.0712 0.54672,3.31359 -1e-5,1.05858 -0.12362,1.99672 -0.37082,2.81442 -0.24722,0.8177 -0.56416,1.49437 -0.95081,2.02999 -0.38668,0.53563 -0.80979,0.95716 -1.26934,1.26459 -0.45957,0.30743 -1.01422,0.54038 -1.66393,0.69885 -0.64973,0.15847 -1.39612,0.2377 -2.23917,0.2377 z m 1.84458,-1.64491 2.97606,0 c 0.91911,0 1.64015,-0.0856 2.1631,-0.25672 0.52294,-0.17115 0.93972,-0.41202 1.25033,-0.72262 0.43736,-0.43737 0.77807,-1.02529 1.02212,-1.76377 0.24404,-0.73846 0.36606,-1.63381 0.36607,-2.68605 -1e-5,-1.45791 -0.2393,-2.57829 -0.71787,-3.36113 -0.47859,-0.78283 -1.06017,-1.30736 -1.74474,-1.57361 -0.49444,-0.19015 -1.28995,-0.28523 -2.38655,-0.28524 l -2.92852,0 z"
         style=""
         id="path3398" />
      <path
         d="m 249.5657,456.98994 1.76852,0.21869 c -0.27892,1.03322 -0.79553,1.83507 -1.54983,2.40556 -0.75432,0.57049 -1.71782,0.85574 -2.89048,0.85574 -1.47694,0 -2.64803,-0.45481 -3.51327,-1.36443 -0.86524,-0.90961 -1.29786,-2.18528 -1.29786,-3.82703 0,-1.69878 0.43737,-3.01725 1.31212,-3.95539 0.87475,-0.93813 2.00939,-1.4072 3.40393,-1.40721 1.35015,1e-5 2.45309,0.45957 3.30884,1.37868 0.85572,0.91913 1.28359,2.21224 1.2836,3.87933 -1e-5,0.10143 -0.003,0.25356 -0.01,0.45639 l -7.53046,0 c 0.0634,1.10929 0.37715,1.95869 0.9413,2.54819 0.56415,0.58951 1.26775,0.88426 2.11082,0.88426 0.62753,0 1.16315,-0.16481 1.60687,-0.49443 0.44371,-0.32961 0.79551,-0.85573 1.05541,-1.57835 z m -5.61932,-2.76687 5.63834,0 c -0.0761,-0.84939 -0.2916,-1.48644 -0.64656,-1.91114 -0.54514,-0.65923 -1.25191,-0.98884 -2.12032,-0.98885 -0.78601,10e-6 -1.44683,0.26306 -1.98245,0.78917 -0.53563,0.52613 -0.83197,1.22973 -0.88901,2.11082 z"
         style=""
         id="path3400" />
      <path
         d="m 255.07092,460.24173 -1.58786,0 0,-13.93896 1.71147,0 0,4.97277 c 0.72262,-0.90644 1.64491,-1.35966 2.76688,-1.35967 0.62119,1e-5 1.20911,0.1252 1.76376,0.37557 0.55463,0.25039 1.01102,0.60219 1.36917,1.05541 0.35814,0.45323 0.63863,0.99995 0.84148,1.64015 0.20283,0.64023 0.30425,1.32481 0.30426,2.05377 -10e-6,1.73049 -0.42788,3.06796 -1.2836,4.01244 -0.85575,0.94448 -1.88263,1.41672 -3.08065,1.41672 -1.19169,0 -2.12666,-0.4976 -2.80491,-1.49279 z m -0.019,-5.1249 c 0,1.21071 0.1648,2.08546 0.49442,2.62425 0.53879,0.88109 1.26775,1.32164 2.18688,1.32164 0.74797,0 1.39452,-0.32486 1.93966,-0.97459 0.54513,-0.64972 0.8177,-1.61797 0.81771,-2.90474 -1e-5,-1.31846 -0.26149,-2.29146 -0.78443,-2.91901 -0.52295,-0.62753 -1.15525,-0.94129 -1.89688,-0.9413 -0.74798,10e-6 -1.39453,0.32487 -1.93966,0.97458 -0.54514,0.64973 -0.8177,1.58946 -0.8177,2.81917 z"
         style=""
         id="path3402" />
      <path
         d="m 263.69483,455.1929 c 0,-1.86993 0.51977,-3.25495 1.55933,-4.15507 0.86841,-0.74796 1.92699,-1.12195 3.17573,-1.12196 1.38818,1e-5 2.52282,0.45482 3.40392,1.36442 0.88108,0.90962 1.32162,2.16628 1.32163,3.76998 -10e-6,1.29946 -0.19492,2.32158 -0.58475,3.06639 -0.38984,0.7448 -0.95716,1.32322 -1.70196,1.73524 -0.74481,0.41202 -1.55776,0.61803 -2.43884,0.61803 -1.41355,0 -2.55611,-0.45323 -3.42769,-1.35967 -0.87158,-0.90644 -1.30737,-2.21223 -1.30737,-3.91736 z m 1.75901,0 c -1e-5,1.29311 0.28207,2.26136 0.84622,2.90474 0.56415,0.64339 1.27409,0.96508 2.12983,0.96508 0.84939,0 1.55616,-0.32328 2.12032,-0.96983 0.56414,-0.64656 0.84622,-1.63223 0.84622,-2.95704 0,-1.24873 -0.28366,-2.19479 -0.85098,-2.83819 -0.56732,-0.64337 -1.27251,-0.96507 -2.11556,-0.96508 -0.85574,10e-6 -1.56568,0.32012 -2.12983,0.96033 -0.56415,0.64022 -0.84623,1.60688 -0.84622,2.89999 z"
         style=""
         id="path3404" />
      <path
         d="m 275.15215,460.24173 0,-10.09767 1.54033,0 0,1.53082 c 0.393,-0.71627 0.75589,-1.18851 1.08868,-1.41672 0.33278,-0.22818 0.69885,-0.34228 1.09819,-0.34229 0.57683,1e-5 1.16316,0.18383 1.75901,0.55147 l -0.5895,1.58786 c -0.41837,-0.2472 -0.83673,-0.3708 -1.25508,-0.37081 -0.37399,10e-6 -0.70995,0.11252 -1.00787,0.33754 -0.29792,0.22503 -0.51027,0.53721 -0.63704,0.93655 -0.19017,0.60853 -0.28525,1.2741 -0.28525,1.99671 l 0,5.28654 z"
         style=""
         id="path3406" />
      <path
         d="m 288.26391,458.99616 c -0.63389,0.5388 -1.24399,0.91912 -1.83032,1.14098 -0.58635,0.22186 -1.21547,0.33279 -1.88737,0.33279 -1.10929,0 -1.96186,-0.27099 -2.5577,-0.81295 -0.59584,-0.54197 -0.89377,-1.23448 -0.89376,-2.07753 -1e-5,-0.49443 0.11251,-0.94606 0.33753,-1.35492 0.22503,-0.40884 0.51978,-0.73688 0.88426,-0.98409 0.36448,-0.24721 0.77492,-0.4342 1.23131,-0.56098 0.33595,-0.0887 0.84305,-0.17431 1.52131,-0.25672 1.38184,-0.16481 2.39921,-0.36131 3.05211,-0.58951 0.006,-0.23453 0.01,-0.38349 0.01,-0.44688 0,-0.69726 -0.16164,-1.18851 -0.48491,-1.47377 -0.43739,-0.38665 -1.08711,-0.57999 -1.94918,-0.58 -0.80502,10e-6 -1.39928,0.14105 -1.78278,0.42312 -0.38349,0.28208 -0.66715,0.78126 -0.85098,1.49753 l -1.67343,-0.22819 c 0.15213,-0.71628 0.40251,-1.29469 0.75114,-1.73524 0.34863,-0.44054 0.85257,-0.77966 1.5118,-1.01737 0.65923,-0.2377 1.42305,-0.35655 2.29147,-0.35656 0.86206,1e-5 1.5625,0.10143 2.1013,0.30426 0.53879,0.20285 0.93496,0.45799 1.18852,0.76541 0.25354,0.30744 0.43103,0.69569 0.53246,1.16475 0.057,0.29159 0.0856,0.81771 0.0856,1.57835 l 0,2.28196 c -10e-6,1.59103 0.0364,2.59731 0.10934,3.01884 0.0729,0.42153 0.2171,0.82562 0.43262,1.21229 l -1.78753,0 c -0.17749,-0.35497 -0.29159,-0.77016 -0.34229,-1.24557 z m -0.14263,-3.82228 c -0.6212,0.25356 -1.553,0.46907 -2.79539,0.64656 -0.70361,0.10142 -1.20121,0.21552 -1.49279,0.34229 -0.29158,0.12678 -0.51661,0.31219 -0.67507,0.55623 -0.15848,0.24404 -0.23771,0.51503 -0.23771,0.81294 0,0.4564 0.17273,0.83672 0.5182,1.14098 0.34546,0.30427 0.85097,0.4564 1.51655,0.4564 0.65922,0 1.24556,-0.14421 1.75901,-0.43263 0.51343,-0.28841 0.89059,-0.683 1.13147,-1.18376 0.18381,-0.38666 0.27573,-0.95715 0.27573,-1.71147 z"
         style=""
         id="path3408" />
      <path
         d="m 292.51405,460.24173 0,-13.93896 1.71147,0 0,5.00129 c 0.79869,-0.92545 1.80655,-1.38818 3.0236,-1.38819 0.74797,1e-5 1.39769,0.14739 1.94917,0.44213 0.55147,0.29476 0.94605,0.70203 1.18377,1.2218 0.23769,0.51978 0.35654,1.2741 0.35655,2.26294 l 0,6.39899 -1.71147,0 0,-6.39899 c 0,-0.85573 -0.18541,-1.47851 -0.55622,-1.86835 -0.37083,-0.38983 -0.89536,-0.58475 -1.5736,-0.58476 -0.50711,10e-6 -0.9841,0.13154 -1.43098,0.39459 -0.44689,0.26307 -0.76541,0.61963 -0.95557,1.06967 -0.19017,0.45006 -0.28525,1.07126 -0.28525,1.8636 l 0,5.52424 z"
         style=""
         id="path3410" />
      <path
         d="m 318.11953,446.30277 1.84458,0 0,8.05341 c -1e-5,1.40087 -0.15848,2.51333 -0.47541,3.33736 -0.31695,0.82405 -0.88902,1.49437 -1.71622,2.01098 -0.82722,0.51661 -1.91273,0.77491 -3.25654,0.77491 -1.3058,0 -2.37388,-0.22502 -3.20425,-0.67508 -0.83039,-0.45005 -1.42306,-1.10136 -1.77803,-1.95392 -0.35497,-0.85256 -0.53246,-2.01731 -0.53246,-3.49425 l 0,-8.05341 1.84459,0 0,8.0439 c -1e-5,1.21071 0.11251,2.10289 0.33754,2.67655 0.22502,0.57366 0.61168,1.01579 1.15999,1.32639 0.5483,0.3106 1.21862,0.4659 2.01098,0.4659 1.35649,0 2.32315,-0.30743 2.89999,-0.9223 0.57681,-0.61485 0.86523,-1.79703 0.86524,-3.54654 z"
         style=""
         id="path3412" />
      <path
         d="m 322.82607,460.24173 0,-10.09767 1.54032,0 0,1.43574 c 0.74163,-1.10928 1.81288,-1.66392 3.21376,-1.66393 0.60851,1e-5 1.16791,0.10935 1.67819,0.32803 0.51026,0.2187 0.89217,0.50553 1.14573,0.86049 0.25354,0.35498 0.43103,0.77651 0.53246,1.26458 0.0634,0.31695 0.0951,0.87159 0.0951,1.66393 l 0,6.20883 -1.71147,0 0,-6.14227 c -10e-6,-0.69726 -0.0666,-1.21862 -0.19967,-1.56409 -0.13312,-0.34546 -0.36924,-0.62119 -0.70836,-0.82721 -0.33913,-0.206 -0.73689,-0.30901 -1.19327,-0.30902 -0.72897,1e-5 -1.35809,0.23138 -1.88737,0.6941 -0.52929,0.46274 -0.79394,1.34065 -0.79393,2.63376 l 0,5.51473 z"
         style=""
         id="path3414" />
      <path
         d="m 333.35159,461.07845 1.66393,0.24721 c 0.0697,0.51344 0.26306,0.88743 0.58,1.12196 0.42469,0.31694 1.00469,0.47541 1.73999,0.47541 0.79234,0 1.40403,-0.15847 1.83508,-0.47541 0.43102,-0.31694 0.72261,-0.76065 0.87475,-1.33114 0.0887,-0.34863 0.12993,-1.08076 0.1236,-2.19638 -0.74798,0.88109 -1.67978,1.32163 -2.7954,1.32163 -1.38819,0 -2.46261,-0.50076 -3.22326,-1.50229 -0.76066,-1.00152 -1.14098,-2.20272 -1.14098,-3.60359 0,-0.96349 0.17431,-1.8525 0.52295,-2.66704 0.34863,-0.81452 0.85414,-1.44365 1.51655,-1.88737 0.6624,-0.4437 1.44048,-0.66556 2.33425,-0.66557 1.19168,1e-5 2.17419,0.48176 2.94753,1.44524 l 0,-1.21705 1.57835,0 0,8.72849 c 0,1.57202 -0.16006,2.68606 -0.48016,3.34212 -0.32011,0.65606 -0.82722,1.17426 -1.5213,1.55459 -0.6941,0.38032 -1.54825,0.57048 -2.56245,0.57049 -1.20437,-10e-6 -2.17737,-0.27099 -2.91901,-0.81295 -0.74163,-0.54197 -1.09977,-1.35809 -1.07442,-2.44835 z m 1.41672,-6.06621 c 0,1.32481 0.26305,2.29147 0.78917,2.89999 0.52612,0.60852 1.18535,0.91279 1.9777,0.91278 0.786,10e-6 1.44524,-0.30267 1.9777,-0.90803 0.53245,-0.60535 0.79868,-1.55458 0.79868,-2.84769 0,-1.23605 -0.27416,-2.16785 -0.82245,-2.7954 -0.54831,-0.62753 -1.20913,-0.9413 -1.98245,-0.94131 -0.76066,10e-6 -1.40721,0.30903 -1.93967,0.92705 -0.53246,0.61804 -0.79868,1.53557 -0.79868,2.75261 z"
         style=""
         id="path3416" />
      <path
         d="m 363.40688,451.91258 c 0.84304,0.91913 1.572,1.61798 2.18688,2.09655 0.61484,0.47858 1.19484,0.83514 1.73999,1.06967 l 0,0.42787 c -0.62755,0.30426 -1.23607,0.69251 -1.82556,1.16475 -0.58953,0.47224 -1.29313,1.16475 -2.11081,2.07753 l -0.73213,0 c 0.59583,-1.27409 1.2202,-2.25343 1.8731,-2.93802 l -15.16551,0 0,-0.96033 15.16551,0 c -0.48176,-0.61485 -0.81771,-1.07124 -1.00786,-1.36917 -0.19018,-0.29792 -0.47225,-0.82086 -0.84623,-1.56885 z"
         style=""
         id="path3418" />
      <path
         d="m 381.32976,460.24173 0,-1.27409 c -0.64022,1.00152 -1.58153,1.50229 -2.82392,1.50229 -0.80503,0 -1.54508,-0.22186 -2.22015,-0.66558 -0.67509,-0.44371 -1.19803,-1.06332 -1.56885,-1.85884 -0.37082,-0.79551 -0.55623,-1.70988 -0.55623,-2.7431 0,-1.00786 0.16798,-1.92223 0.50393,-2.74311 0.33596,-0.82086 0.83989,-1.44998 1.5118,-1.88737 0.67191,-0.43736 1.42305,-0.65605 2.25344,-0.65606 0.60851,1e-5 1.15048,0.12837 1.62589,0.38508 0.4754,0.25673 0.86207,0.5911 1.16,1.00311 l 0,-5.00129 1.70196,0 0,13.93896 z m -5.41014,-5.03932 c 0,1.29311 0.27257,2.25977 0.8177,2.89998 0.54513,0.64022 1.18852,0.96033 1.93016,0.96033 0.74797,0 1.38343,-0.30585 1.90639,-0.91754 0.52294,-0.61169 0.78441,-1.54507 0.78442,-2.80015 -1e-5,-1.38185 -0.26624,-2.39605 -0.79869,-3.04261 -0.53246,-0.64655 -1.18852,-0.96983 -1.96819,-0.96984 -0.76065,10e-6 -1.39611,0.31061 -1.90638,0.9318 -0.51028,0.62121 -0.76541,1.60055 -0.76541,2.93803 z"
         style=""
         id="path3420" />
      <path
         d="m 392.23563,460.24173 0,-1.48327 c -0.78601,1.14098 -1.8541,1.71147 -3.20425,1.71147 -0.59585,0 -1.15207,-0.1141 -1.66868,-0.3423 -0.51661,-0.22819 -0.90011,-0.51502 -1.15049,-0.86049 -0.25038,-0.34546 -0.42628,-0.76857 -0.5277,-1.26934 -0.0697,-0.33595 -0.10459,-0.8684 -0.10459,-1.59737 l 0,-6.25637 1.71147,0 0,5.60031 c 0,0.89377 0.0349,1.49595 0.10459,1.80655 0.10775,0.45006 0.33595,0.80344 0.68459,1.06016 0.34862,0.25672 0.77966,0.38508 1.2931,0.38508 0.51344,0 0.99519,-0.13153 1.44525,-0.39459 0.45004,-0.26305 0.76856,-0.6212 0.95557,-1.07442 0.18698,-0.45322 0.28048,-1.11087 0.28049,-1.97294 l 0,-5.41015 1.71146,0 0,10.09767 z"
         style=""
         id="path3422" />
      <path
         d="m 396.45725,460.24173 0,-10.09767 1.54032,0 0,1.43574 c 0.74163,-1.10928 1.81288,-1.66392 3.21376,-1.66393 0.60851,1e-5 1.16791,0.10935 1.67819,0.32803 0.51026,0.2187 0.89217,0.50553 1.14573,0.86049 0.25354,0.35498 0.43103,0.77651 0.53246,1.26458 0.0634,0.31695 0.0951,0.87159 0.0951,1.66393 l 0,6.20883 -1.71147,0 0,-6.14227 c -1e-5,-0.69726 -0.0666,-1.21862 -0.19967,-1.56409 -0.13312,-0.34546 -0.36924,-0.62119 -0.70836,-0.82721 -0.33913,-0.206 -0.73689,-0.30901 -1.19327,-0.30902 -0.72897,1e-5 -1.35809,0.23138 -1.88737,0.6941 -0.52929,0.46274 -0.79394,1.34065 -0.79393,2.63376 l 0,5.51473 z"
         style=""
         id="path3424" />
      <path
         d="m 406.98277,461.07845 1.66393,0.24721 c 0.0697,0.51344 0.26306,0.88743 0.58,1.12196 0.42469,0.31694 1.00469,0.47541 1.73999,0.47541 0.79234,0 1.40403,-0.15847 1.83507,-0.47541 0.43103,-0.31694 0.72262,-0.76065 0.87476,-1.33114 0.0887,-0.34863 0.12993,-1.08076 0.1236,-2.19638 -0.74798,0.88109 -1.67978,1.32163 -2.7954,1.32163 -1.38819,0 -2.46261,-0.50076 -3.22326,-1.50229 -0.76066,-1.00152 -1.14098,-2.20272 -1.14098,-3.60359 0,-0.96349 0.17431,-1.8525 0.52295,-2.66704 0.34863,-0.81452 0.85414,-1.44365 1.51655,-1.88737 0.6624,-0.4437 1.44048,-0.66556 2.33425,-0.66557 1.19168,1e-5 2.17419,0.48176 2.94753,1.44524 l 0,-1.21705 1.57835,0 0,8.72849 c 0,1.57202 -0.16006,2.68606 -0.48016,3.34212 -0.32011,0.65606 -0.82722,1.17426 -1.5213,1.55459 -0.69411,0.38032 -1.54825,0.57048 -2.56245,0.57049 -1.20437,-10e-6 -2.17737,-0.27099 -2.91901,-0.81295 -0.74163,-0.54197 -1.09977,-1.35809 -1.07442,-2.44835 z m 1.41672,-6.06621 c -1e-5,1.32481 0.26305,2.29147 0.78917,2.89999 0.52612,0.60852 1.18535,0.91279 1.9777,0.91278 0.786,10e-6 1.44524,-0.30267 1.9777,-0.90803 0.53245,-0.60535 0.79868,-1.55458 0.79868,-2.84769 0,-1.23605 -0.27416,-2.16785 -0.82245,-2.7954 -0.54831,-0.62753 -1.20913,-0.9413 -1.98245,-0.94131 -0.76066,10e-6 -1.40721,0.30903 -1.93967,0.92705 -0.53246,0.61804 -0.79869,1.53557 -0.79868,2.75261 z"
         style=""
         id="path3426" />
      <path
         d="m 427.89122,458.6919 c -0.41203,0.47541 -0.87317,0.85732 -1.38344,1.14573 -0.51028,0.28842 -1.02213,0.43262 -1.53556,0.43262 -0.56416,0 -1.11246,-0.1648 -1.64491,-0.49442 -0.53247,-0.32962 -0.96509,-0.83672 -1.29787,-1.52131 -0.33279,-0.68458 -0.49918,-1.43572 -0.49918,-2.25343 0,-1.00786 0.2583,-2.01731 0.77492,-3.02835 0.5166,-1.01102 1.1584,-1.77009 1.9254,-2.2772 0.76698,-0.50709 1.51179,-0.76064 2.23442,-0.76065 0.55146,1e-5 1.07758,0.14421 1.57835,0.43262 0.50075,0.28842 0.93179,0.72738 1.29311,1.31688 l 0.32328,-1.47377 1.70196,0 -1.36918,6.37998 c -0.19017,0.88743 -0.28525,1.37868 -0.28524,1.47376 -1e-5,0.17115 0.065,0.31853 0.19492,0.44213 0.12993,0.12361 0.28681,0.18541 0.47065,0.18541 0.33594,0 0.77649,-0.19333 1.32164,-0.58 0.7226,-0.5071 1.29467,-1.18693 1.71622,-2.0395 0.42151,-0.85256 0.63227,-1.73206 0.63229,-2.63851 -2e-5,-1.05857 -0.271,-2.04742 -0.81295,-2.96655 -0.54198,-0.91911 -1.35017,-1.65441 -2.42458,-2.20589 -1.07443,-0.55146 -2.26137,-0.8272 -3.5608,-0.82721 -1.48328,1e-5 -2.8382,0.34706 -4.06474,1.04114 -1.22656,0.69411 -2.17737,1.6893 -2.85245,2.98556 -0.67508,1.29629 -1.01262,2.68607 -1.01262,4.16933 0,1.553 0.33754,2.89048 1.01262,4.01245 0.67508,1.12196 1.65125,1.95075 2.92851,2.48638 1.27726,0.53562 2.69239,0.80344 4.2454,0.80344 1.66074,0 3.0521,-0.27891 4.17408,-0.83672 1.12195,-0.55781 1.96183,-1.23606 2.51966,-2.03475 l 1.72098,0 c -0.3233,0.66558 -0.87794,1.34382 -1.66393,2.03475 -0.78602,0.69092 -1.72099,1.23764 -2.80491,1.64016 -1.08394,0.40251 -2.38973,0.60376 -3.91736,0.60377 -1.40722,-10e-6 -2.70508,-0.18066 -3.89359,-0.54197 -1.18852,-0.36131 -2.20114,-0.90486 -3.03786,-1.63065 -0.83672,-0.72579 -1.46742,-1.56092 -1.89212,-2.5054 -0.53246,-1.19802 -0.79869,-2.49113 -0.79869,-3.87933 0,-1.54665 0.31694,-3.02041 0.95082,-4.42129 0.77333,-1.7178 1.87152,-3.03309 3.29458,-3.94589 1.42305,-0.91277 3.14877,-1.36916 5.17719,-1.36917 1.572,1e-5 2.98396,0.3217 4.23589,0.96508 1.25189,0.64339 2.23915,1.60213 2.96179,2.87621 0.61484,1.09662 0.92227,2.28831 0.92229,3.57507 -2e-5,1.83825 -0.64657,3.47048 -1.93967,4.8967 -1.15367,1.28044 -2.41508,1.92065 -3.78424,1.92065 -0.43739,0 -0.79078,-0.0666 -1.06016,-0.19967 -0.26941,-0.13311 -0.4675,-0.32328 -0.59426,-0.57049 -0.0824,-0.15847 -0.14264,-0.43103 -0.18066,-0.8177 z m -4.60195,-2.57671 c 0,0.86841 0.20601,1.54349 0.61803,2.02524 0.41202,0.48174 0.88425,0.72262 1.41672,0.72262 0.35496,0 0.72895,-0.10618 1.12196,-0.31853 0.393,-0.21234 0.76857,-0.5277 1.12672,-0.94606 0.35813,-0.41835 0.6513,-0.94923 0.8795,-1.59262 0.22819,-0.64338 0.34228,-1.28835 0.3423,-1.93491 -2e-5,-0.86206 -0.21395,-1.5308 -0.6418,-2.00622 -0.42788,-0.4754 -0.94925,-0.7131 -1.5641,-0.71311 -0.40569,10e-6 -0.7876,0.10301 -1.14573,0.30902 -0.35815,0.20601 -0.7052,0.53722 -1.04114,0.9936 -0.33596,0.4564 -0.60536,1.01104 -0.8082,1.66393 -0.20284,0.6529 -0.30426,1.25191 -0.30426,1.79704 z"
         style=""
         id="path3428" />
      <path
         d="m 444.50197,456.54306 1.68294,0.21868 c -0.18383,1.16 -0.65449,2.06803 -1.41196,2.72409 -0.75749,0.65606 -1.68771,0.9841 -2.79065,0.9841 -1.38185,0 -2.49272,-0.45164 -3.3326,-1.35492 -0.83989,-0.90327 -1.25984,-2.19796 -1.25984,-3.88408 0,-1.09026 0.18066,-2.04425 0.54197,-2.86196 0.36131,-0.81769 0.9112,-1.43096 1.64966,-1.83982 0.73847,-0.40885 1.54191,-0.61327 2.41032,-0.61328 1.0966,1e-5 1.99354,0.27733 2.69081,0.83196 0.69726,0.55465 1.14414,1.34225 1.34065,2.36278 l -1.66393,0.25672 c -0.15847,-0.67824 -0.43896,-1.18851 -0.84147,-1.53081 -0.40252,-0.34229 -0.88902,-0.51343 -1.4595,-0.51344 -0.86208,10e-6 -1.56251,0.30902 -2.1013,0.92704 -0.5388,0.61804 -0.8082,1.59579 -0.8082,2.93327 0,1.3565 0.25989,2.34218 0.77967,2.95704 0.51978,0.61486 1.19803,0.92229 2.03475,0.92229 0.6719,0 1.23288,-0.20601 1.68294,-0.61803 0.45005,-0.41202 0.73529,-1.0459 0.85574,-1.90163 z"
         style=""
         id="path3430" />
      <path
         d="m 447.01212,455.1929 c 0,-1.86993 0.51978,-3.25495 1.55934,-4.15507 0.86841,-0.74796 1.92699,-1.12195 3.17573,-1.12196 1.38818,1e-5 2.52282,0.45482 3.40392,1.36442 0.88108,0.90962 1.32162,2.16628 1.32163,3.76998 -10e-6,1.29946 -0.19492,2.32158 -0.58475,3.06639 -0.38984,0.7448 -0.95716,1.32322 -1.70196,1.73524 -0.74481,0.41202 -1.55776,0.61803 -2.43884,0.61803 -1.41355,0 -2.55611,-0.45323 -3.42769,-1.35967 -0.87159,-0.90644 -1.30738,-2.21223 -1.30738,-3.91736 z m 1.75901,0 c 0,1.29311 0.28208,2.26136 0.84623,2.90474 0.56415,0.64339 1.27409,0.96508 2.12983,0.96508 0.84939,0 1.55616,-0.32328 2.12032,-0.96983 0.56414,-0.64656 0.84622,-1.63223 0.84622,-2.95704 0,-1.24873 -0.28366,-2.19479 -0.85098,-2.83819 -0.56732,-0.64337 -1.27251,-0.96507 -2.11556,-0.96508 -0.85574,10e-6 -1.56568,0.32012 -2.12983,0.96033 -0.56415,0.64022 -0.84623,1.60688 -0.84623,2.89999 z"
         style=""
         id="path3432" />
      <path
         d="m 458.48848,460.24173 0,-10.09767 1.53081,0 0,1.41672 c 0.31694,-0.49441 0.73847,-0.89217 1.26459,-1.19327 0.52611,-0.30108 1.12513,-0.45163 1.79704,-0.45164 0.74797,1e-5 1.36125,0.15531 1.83983,0.4659 0.47857,0.31061 0.81611,0.74481 1.01262,1.30262 0.79868,-1.17901 1.83823,-1.76851 3.11868,-1.76852 1.00151,1e-5 1.77167,0.27733 2.31048,0.83196 0.53878,0.55465 0.80818,1.4088 0.80819,2.56245 l 0,6.93145 -1.70196,0 0,-6.36096 c -10e-6,-0.68458 -0.0555,-1.17742 -0.16639,-1.47852 -0.11094,-0.30108 -0.3122,-0.54354 -0.60377,-0.72737 -0.2916,-0.18382 -0.63389,-0.27573 -1.02688,-0.27574 -0.70995,1e-5 -1.29946,0.23613 -1.76852,0.70836 -0.46908,0.47225 -0.70361,1.22814 -0.7036,2.2677 l 0,5.86653 -1.71147,0 0,-6.56063 c -1e-5,-0.76065 -0.13946,-1.33113 -0.41836,-1.71147 -0.27891,-0.38032 -0.7353,-0.57048 -1.36917,-0.57049 -0.48176,1e-5 -0.92705,0.12679 -1.3359,0.38033 -0.40886,0.25356 -0.70519,0.62438 -0.88901,1.11245 -0.18383,0.4881 -0.27574,1.1917 -0.27574,2.11081 l 0,5.239 z"
         style=""
         id="path3434" />
      <path
         d="m 474.72841,464.11155 0,-13.96749 1.55934,0 0,1.31213 c 0.36764,-0.51343 0.78283,-0.89851 1.24557,-1.15524 0.46272,-0.25671 1.0237,-0.38507 1.68294,-0.38508 0.86207,1e-5 1.62272,0.22187 2.28196,0.66557 0.65922,0.44372 1.15682,1.06968 1.49278,1.87786 0.33595,0.8082 0.50392,1.69404 0.50393,2.65753 -1e-5,1.03323 -0.18542,1.96344 -0.55622,2.79065 -0.37083,0.82721 -0.90963,1.46108 -1.61639,1.90163 -0.70678,0.44054 -1.45,0.66082 -2.22966,0.66082 -0.5705,0 -1.08235,-0.12044 -1.53557,-0.36131 -0.45323,-0.24088 -0.82563,-0.54514 -1.11721,-0.91279 l 0,4.91572 z m 1.54983,-8.8616 c 0,1.29945 0.26306,2.25977 0.78918,2.88097 0.52611,0.6212 1.16316,0.9318 1.91114,0.9318 0.76064,0 1.41195,-0.32169 1.95392,-0.96508 0.54196,-0.64338 0.81294,-1.64015 0.81295,-2.99032 -10e-6,-1.28676 -0.26465,-2.25025 -0.79393,-2.89048 -0.52929,-0.6402 -1.16159,-0.96031 -1.89688,-0.96032 -0.72896,10e-6 -1.37393,0.34072 -1.93491,1.02213 -0.56098,0.68142 -0.84147,1.67185 -0.84147,2.9713 z"
         style=""
         id="path3436" />
      <path
         d="m 492.15686,458.99616 c -0.63389,0.5388 -1.24399,0.91912 -1.83032,1.14098 -0.58634,0.22186 -1.21547,0.33279 -1.88737,0.33279 -1.10929,0 -1.96185,-0.27099 -2.5577,-0.81295 -0.59584,-0.54197 -0.89376,-1.23448 -0.89376,-2.07753 0,-0.49443 0.11251,-0.94606 0.33754,-1.35492 0.22502,-0.40884 0.51977,-0.73688 0.88426,-0.98409 0.36447,-0.24721 0.77491,-0.4342 1.2313,-0.56098 0.33595,-0.0887 0.84305,-0.17431 1.52131,-0.25672 1.38184,-0.16481 2.39922,-0.36131 3.05212,-0.58951 0.006,-0.23453 0.01,-0.38349 0.01,-0.44688 0,-0.69726 -0.16164,-1.18851 -0.48491,-1.47377 -0.43738,-0.38665 -1.08711,-0.57999 -1.94917,-0.58 -0.80503,10e-6 -1.39929,0.14105 -1.78278,0.42312 -0.3835,0.28208 -0.66716,0.78126 -0.85098,1.49753 l -1.67344,-0.22819 c 0.15213,-0.71628 0.40251,-1.29469 0.75114,-1.73524 0.34864,-0.44054 0.85257,-0.77966 1.5118,-1.01737 0.65923,-0.2377 1.42305,-0.35655 2.29147,-0.35656 0.86206,1e-5 1.5625,0.10143 2.1013,0.30426 0.53879,0.20285 0.93496,0.45799 1.18852,0.76541 0.25354,0.30744 0.43103,0.69569 0.53246,1.16475 0.057,0.29159 0.0856,0.81771 0.0856,1.57835 l 0,2.28196 c -10e-6,1.59103 0.0364,2.59731 0.10935,3.01884 0.0729,0.42153 0.21709,0.82562 0.43262,1.21229 l -1.78754,0 c -0.17749,-0.35497 -0.29159,-0.77016 -0.34229,-1.24557 z m -0.14262,-3.82228 c -0.62121,0.25356 -1.55301,0.46907 -2.7954,0.64656 -0.70361,0.10142 -1.2012,0.21552 -1.49278,0.34229 -0.29159,0.12678 -0.51662,0.31219 -0.67508,0.55623 -0.15847,0.24404 -0.23771,0.51503 -0.23771,0.81294 0,0.4564 0.17273,0.83672 0.5182,1.14098 0.34546,0.30427 0.85097,0.4564 1.51655,0.4564 0.65923,0 1.24556,-0.14421 1.75901,-0.43263 0.51343,-0.28841 0.89059,-0.683 1.13147,-1.18376 0.18382,-0.38666 0.27573,-0.95715 0.27574,-1.71147 z"
         style=""
         id="path3438" />
      <path
         d="m 496.407,460.24173 0,-10.09767 1.54032,0 0,1.43574 c 0.74163,-1.10928 1.81289,-1.66392 3.21376,-1.66393 0.60851,1e-5 1.16791,0.10935 1.67819,0.32803 0.51026,0.2187 0.89217,0.50553 1.14573,0.86049 0.25354,0.35498 0.43103,0.77651 0.53246,1.26458 0.0634,0.31695 0.0951,0.87159 0.0951,1.66393 l 0,6.20883 -1.71147,0 0,-6.14227 c -1e-5,-0.69726 -0.0666,-1.21862 -0.19967,-1.56409 -0.13312,-0.34546 -0.36924,-0.62119 -0.70836,-0.82721 -0.33913,-0.206 -0.73689,-0.30901 -1.19327,-0.30902 -0.72897,1e-5 -1.35809,0.23138 -1.88737,0.6941 -0.52929,0.46274 -0.79394,1.34065 -0.79393,2.63376 l 0,5.51473 z"
         style=""
         id="path3440" />
      <path
         d="m 507.17026,464.13057 -0.19016,-1.60688 c 0.37398,0.10142 0.70043,0.15213 0.97934,0.15213 0.38032,0 0.68458,-0.0634 0.91278,-0.19016 0.22819,-0.12678 0.41519,-0.30427 0.56098,-0.53246 0.10776,-0.17115 0.28207,-0.59585 0.52295,-1.27409 0.0317,-0.0951 0.0824,-0.23454 0.15213,-0.41836 l -3.83179,-10.11669 1.84458,0 2.10131,5.84752 c 0.27256,0.74164 0.5166,1.52131 0.73213,2.33901 0.19649,-0.78601 0.43103,-1.553 0.7036,-2.30097 l 2.15835,-5.88556 1.71147,0 -3.8413,10.26882 c -0.41202,1.10928 -0.73213,1.8731 -0.96032,2.29146 -0.30427,0.56415 -0.6529,0.97776 -1.0459,1.24082 -0.393,0.26305 -0.86207,0.39458 -1.4072,0.39459 -0.32962,-10e-6 -0.69727,-0.0697 -1.10295,-0.20918 z"
         style=""
         id="path3442" />
      <path
         d="m 517.4676,460.24173 0,-1.94917 1.94917,0 0,1.94917 z"
         style=""
         id="path3444" />
      <path
         d="m 528.97244,456.54306 1.68295,0.21868 c -0.18384,1.16 -0.65449,2.06803 -1.41197,2.72409 -0.75749,0.65606 -1.6877,0.9841 -2.79064,0.9841 -1.38186,0 -2.49273,-0.45164 -3.33261,-1.35492 -0.83989,-0.90327 -1.25983,-2.19796 -1.25983,-3.88408 0,-1.09026 0.18065,-2.04425 0.54196,-2.86196 0.36131,-0.81769 0.9112,-1.43096 1.64967,-1.83982 0.73846,-0.40885 1.5419,-0.61327 2.41032,-0.61328 1.0966,1e-5 1.99353,0.27733 2.69081,0.83196 0.69725,0.55465 1.14414,1.34225 1.34065,2.36278 l -1.66393,0.25672 c -0.15848,-0.67824 -0.43897,-1.18851 -0.84147,-1.53081 -0.40252,-0.34229 -0.88902,-0.51343 -1.45951,-0.51344 -0.86207,10e-6 -1.56251,0.30902 -2.1013,0.92704 -0.5388,0.61804 -0.80819,1.59579 -0.80819,2.93327 0,1.3565 0.25988,2.34218 0.77967,2.95704 0.51977,0.61486 1.19802,0.92229 2.03474,0.92229 0.67191,0 1.23289,-0.20601 1.68295,-0.61803 0.45004,-0.41202 0.73529,-1.0459 0.85573,-1.90163 z"
         style=""
         id="path3446" />
      <path
         d="m 531.4826,455.1929 c 0,-1.86993 0.51978,-3.25495 1.55934,-4.15507 0.86841,-0.74796 1.92698,-1.12195 3.17572,-1.12196 1.38819,1e-5 2.52283,0.45482 3.40392,1.36442 0.88108,0.90962 1.32163,2.16628 1.32164,3.76998 -10e-6,1.29946 -0.19493,2.32158 -0.58475,3.06639 -0.38985,0.7448 -0.95717,1.32322 -1.70196,1.73524 -0.74482,0.41202 -1.55776,0.61803 -2.43885,0.61803 -1.41355,0 -2.55611,-0.45323 -3.42769,-1.35967 -0.87158,-0.90644 -1.30737,-2.21223 -1.30737,-3.91736 z m 1.75901,0 c 0,1.29311 0.28207,2.26136 0.84622,2.90474 0.56415,0.64339 1.27409,0.96508 2.12983,0.96508 0.84939,0 1.55616,-0.32328 2.12032,-0.96983 0.56414,-0.64656 0.84622,-1.63223 0.84623,-2.95704 -10e-6,-1.24873 -0.28367,-2.19479 -0.85098,-2.83819 -0.56733,-0.64337 -1.27252,-0.96507 -2.11557,-0.96508 -0.85574,10e-6 -1.56568,0.32012 -2.12983,0.96033 -0.56415,0.64022 -0.84622,1.60688 -0.84622,2.89999 z"
         style=""
         id="path3448" />
      <path
         d="m 542.95897,460.24173 0,-10.09767 1.53081,0 0,1.41672 c 0.31694,-0.49441 0.73847,-0.89217 1.26459,-1.19327 0.52611,-0.30108 1.12513,-0.45163 1.79704,-0.45164 0.74797,1e-5 1.36125,0.15531 1.83983,0.4659 0.47857,0.31061 0.81611,0.74481 1.01262,1.30262 0.79868,-1.17901 1.83823,-1.76851 3.11868,-1.76852 1.00151,1e-5 1.77167,0.27733 2.31048,0.83196 0.53878,0.55465 0.80818,1.4088 0.80819,2.56245 l 0,6.93145 -1.70196,0 0,-6.36096 c -10e-6,-0.68458 -0.0555,-1.17742 -0.16639,-1.47852 -0.11094,-0.30108 -0.3122,-0.54354 -0.60377,-0.72737 -0.2916,-0.18382 -0.63389,-0.27573 -1.02688,-0.27574 -0.70995,1e-5 -1.29946,0.23613 -1.76852,0.70836 -0.46908,0.47225 -0.70361,1.22814 -0.7036,2.2677 l 0,5.86653 -1.71147,0 0,-6.56063 c -10e-6,-0.76065 -0.13946,-1.33113 -0.41836,-1.71147 -0.27891,-0.38032 -0.7353,-0.57048 -1.36917,-0.57049 -0.48176,1e-5 -0.92705,0.12679 -1.3359,0.38033 -0.40886,0.25356 -0.70519,0.62438 -0.88901,1.11245 -0.18383,0.4881 -0.27574,1.1917 -0.27574,2.11081 l 0,5.239 z"
         style=""
         id="path3450" />
    </g>
  </g>
</svg>
