<?xml version="1.0" encoding="UTF-8" standalone="no"?>
<!-- Created with Inkscape (http://www.inkscape.org/) -->

<svg
   xmlns:dc="http://purl.org/dc/elements/1.1/"
   xmlns:cc="http://creativecommons.org/ns#"
   xmlns:rdf="http://www.w3.org/1999/02/22-rdf-syntax-ns#"
   xmlns:svg="http://www.w3.org/2000/svg"
   xmlns="http://www.w3.org/2000/svg"
   xmlns:xlink="http://www.w3.org/1999/xlink"
   xmlns:sodipodi="http://sodipodi.sourceforge.net/DTD/sodipodi-0.dtd"
   xmlns:inkscape="http://www.inkscape.org/namespaces/inkscape"
   width="295.9021"
   height="27.347162"
   id="svg2"
   version="1.1"
   inkscape:version="0.48.4 r9939"
   sodipodi:docname="ass.svg">
  <defs
     id="defs4">
    <marker
       inkscape:stockid="Arrow2Lend"
       orient="auto"
       refY="0"
       refX="0"
       id="Arrow2Lend"
       style="overflow:visible">
      <path
         id="path3804"
         style="fill-rule:evenodd;stroke-width:0.625;stroke-linejoin:round"
         d="M 8.7185878,4.0337352 -2.2072895,0.01601326 8.7185884,-4.0017078 c -1.7454984,2.3720609 -1.7354408,5.6174519 -6e-7,8.035443 z"
         transform="matrix(-1.1,0,0,-1.1,-1.1,0)"
         inkscape:connector-curvature="0" />
    </marker>
    <marker
       inkscape:stockid="Arrow1Lend"
       orient="auto"
       refY="0"
       refX="0"
       id="Arrow1Lend"
       style="overflow:visible">
      <path
         id="path3786"
         d="M 0,0 5,-5 -12.5,0 5,5 0,0 z"
         style="fill-rule:evenodd;stroke:#000000;stroke-width:1pt"
         transform="matrix(-0.8,0,0,-0.8,-10,0)"
         inkscape:connector-curvature="0" />
    </marker>
  </defs>
  <sodipodi:namedview
     id="base"
     pagecolor="#ffffff"
     bordercolor="#666666"
     borderopacity="1.0"
     inkscape:pageopacity="0.0"
     inkscape:pageshadow="2"
     inkscape:zoom="5.6"
     inkscape:cx="213.39066"
     inkscape:cy="-17.195081"
     inkscape:document-units="px"
     inkscape:current-layer="layer1"
     showgrid="false"
     inkscape:window-width="1600"
     inkscape:window-height="847"
     inkscape:window-x="-8"
     inkscape:window-y="-8"
     inkscape:window-maximized="1"
     fit-margin-top="0"
     fit-margin-left="0"
     fit-margin-right="0"
     fit-margin-bottom="0"
     units="px" />
  <metadata
     id="metadata7">
    <rdf:RDF>
      <cc:Work
         rdf:about="">
        <dc:format>image/svg+xml</dc:format>
        <dc:type
           rdf:resource="http://purl.org/dc/dcmitype/StillImage" />
        <dc:title />
      </cc:Work>
    </rdf:RDF>
  </metadata>
  <g
     inkscape:label="Paths"
     inkscape:groupmode="layer"
     id="layer1"
     transform="translate(-236.46162,-445.22542)"
     style="display:inline">
    <use
       x="0"
       y="0"
       xlink:href="#path2989"
       id="use4785"
       transform="matrix(0.99089955,0,0,1,91.580419,0)"
       width="744.09448"
       height="1052.3622" />
    <use
       x="0"
       y="0"
       xlink:href="#path2989"
       id="use4783"
       transform="matrix(1.0041,0,0,1,49.385996,0)"
       width="744.09448"
       height="1052.3622" />
    <path
       sodipodi:type="arc"
       style="fill:#000000;fill-opacity:0;stroke:#ff0000;stroke-width:4.62469244;stroke-linecap:round;stroke-linejoin:round;stroke-miterlimit:4;stroke-opacity:1;stroke-dasharray:none"
       id="path2989"
       sodipodi:cx="67.680222"
       sodipodi:cy="457.88742"
       sodipodi:rx="14.540657"
       sodipodi:ry="28.284271"
       d="m 82.220879,457.88742 a 14.540657,28.284271 0 1 1 -29.081314,0 14.540657,28.284271 0 1 1 29.081314,0 z"
       transform="matrix(0.41738249,0,0,0.44808458,377.5641,253.72527)" />
    <g
       style="font-size:17.92338371px;font-style:normal;font-variant:normal;font-weight:normal;font-stretch:normal;line-height:125%;letter-spacing:0px;word-spacing:0px;fill:#000000;fill-opacity:1;stroke:none;font-family:Arial;-inkscape-font-specification:Arial"
       id="text2985">
      <path
         d="m 236.46161,464.32272 4.92718,-12.82992 1.8291,0 5.25099,12.82992 -1.93411,0 -1.49654,-3.88573 -5.36476,0 -1.40902,3.88573 z m 3.70195,-5.26849 4.34957,0 -1.339,-3.55317 c -0.40842,-1.07936 -0.71181,-1.9662 -0.91017,-2.6605 -0.16337,0.82266 -0.39383,1.63948 -0.69138,2.45046 z"
         id="path3084"
         inkscape:connector-curvature="0" />
      <path
         d="m 251.09438,464.32272 -1.46153,0 0,-12.82992 1.5753,0 0,4.57712 c 0.66512,-0.83432 1.51403,-1.25148 2.54673,-1.25149 0.57177,1e-5 1.11291,0.11524 1.62343,0.34569 0.51051,0.23047 0.93059,0.55428 1.26024,0.97143 0.32964,0.41717 0.58781,0.92039 0.77452,1.50966 0.18669,0.58929 0.28004,1.21941 0.28005,1.89036 -1e-5,1.5928 -0.39383,2.82387 -1.18147,3.6932 -0.78766,0.86933 -1.73283,1.30399 -2.83554,1.30399 -1.09687,0 -1.95745,-0.458 -2.58173,-1.37401 z m -0.0175,-4.71714 c 0,1.11438 0.1517,1.91953 0.45509,2.41546 0.49592,0.81099 1.16688,1.21648 2.01288,1.21648 0.68846,0 1.28357,-0.29901 1.78534,-0.89705 0.50175,-0.59802 0.75263,-1.48923 0.75264,-2.67363 -10e-6,-1.21355 -0.24068,-2.10914 -0.72201,-2.68675 -0.48135,-0.5776 -1.06333,-0.86641 -1.74596,-0.86642 -0.68846,10e-6 -1.28358,0.29903 -1.78533,0.89705 -0.50177,0.59803 -0.75265,1.46299 -0.75265,2.59486 z"
         id="path3086"
         inkscape:connector-curvature="0" />
      <path
         d="m 261.07126,464.32272 -1.46152,0 0,-12.82992 1.57529,0 0,4.57712 c 0.66512,-0.83432 1.51403,-1.25148 2.54673,-1.25149 0.57177,1e-5 1.11292,0.11524 1.62343,0.34569 0.51051,0.23047 0.93059,0.55428 1.26024,0.97143 0.32964,0.41717 0.58781,0.92039 0.77452,1.50966 0.1867,0.58929 0.28005,1.21941 0.28006,1.89036 -10e-6,1.5928 -0.39384,2.82387 -1.18148,3.6932 -0.78765,0.86933 -1.73283,1.30399 -2.83553,1.30399 -1.09688,0 -1.95746,-0.458 -2.58174,-1.37401 z m -0.0175,-4.71714 c 0,1.11438 0.15169,1.91953 0.45508,2.41546 0.49593,0.81099 1.16689,1.21648 2.01288,1.21648 0.68846,0 1.28357,-0.29901 1.78534,-0.89705 0.50175,-0.59802 0.75264,-1.48923 0.75264,-2.67363 0,-1.21355 -0.24068,-2.10914 -0.72201,-2.68675 -0.48135,-0.5776 -1.06333,-0.86641 -1.74595,-0.86642 -0.68847,10e-6 -1.28358,0.29903 -1.78534,0.89705 -0.50176,0.59803 -0.75264,1.46299 -0.75264,2.59486 z"
         id="path3088"
         inkscape:connector-curvature="0" />
      <path
         d="m 269.60412,453.30439 0,-1.81159 1.5753,0 0,1.81159 z m 0,11.01833 0,-9.29425 1.5753,0 0,9.29425 z"
         id="path3090"
         inkscape:connector-curvature="0" />
      <path
         d="m 279.94858,461.32966 1.6278,0.20129 c -0.25672,0.95101 -0.73223,1.68907 -1.42652,2.21416 -0.6943,0.5251 -1.58113,0.78765 -2.6605,0.78765 -1.35943,0 -2.43734,-0.41862 -3.23373,-1.25586 -0.79641,-0.83724 -1.19461,-2.01142 -1.1946,-3.52254 -1e-5,-1.56362 0.40257,-2.77718 1.20772,-3.64069 0.80515,-0.86348 1.84952,-1.29523 3.1331,-1.29524 1.24272,1e-5 2.25791,0.423 3.04557,1.26899 0.78764,0.846 1.18146,2.03622 1.18147,3.57067 -1e-5,0.0934 -0.003,0.23338 -0.009,0.42008 l -6.93131,0 c 0.0583,1.02103 0.34715,1.80284 0.86642,2.34544 0.51926,0.54261 1.16688,0.81391 1.94286,0.81391 0.57761,0 1.07062,-0.1517 1.47903,-0.45509 0.40841,-0.30339 0.73222,-0.78764 0.97144,-1.45277 z m -5.17223,-2.54673 5.18973,0 c -0.07,-0.78181 -0.26839,-1.36817 -0.59511,-1.75908 -0.50177,-0.60678 -1.15231,-0.91017 -1.95162,-0.91018 -0.72348,10e-6 -1.33172,0.24214 -1.82472,0.72639 -0.49301,0.48427 -0.76577,1.13189 -0.81828,1.94287 z"
         id="path3092"
         inkscape:connector-curvature="0" />
      <path
         d="m 288.15763,460.2007 1.60155,-0.14003 c 0.0758,0.64179 0.25234,1.16835 0.52947,1.57967 0.27714,0.41133 0.70743,0.74389 1.29087,0.99769 0.58344,0.2538 1.23981,0.3807 1.96912,0.3807 0.64762,0 1.21939,-0.0963 1.71533,-0.28881 0.49592,-0.19253 0.86494,-0.45654 1.10708,-0.79202 0.24212,-0.33548 0.36319,-0.70159 0.3632,-1.09833 -10e-6,-0.40258 -0.1167,-0.7541 -0.35007,-1.05458 -0.23339,-0.30047 -0.61846,-0.55281 -1.15522,-0.75702 -0.34424,-0.13418 -1.10563,-0.34276 -2.28418,-0.62574 -1.17856,-0.28296 -2.00413,-0.54989 -2.47672,-0.80078 -0.61262,-0.32088 -1.06916,-0.71908 -1.36963,-1.1946 -0.30048,-0.47549 -0.45071,-1.00789 -0.45071,-1.59717 0,-0.64761 0.18378,-1.25294 0.55135,-1.81597 0.36757,-0.56301 0.90434,-0.99038 1.61031,-1.28212 0.70596,-0.29171 1.49069,-0.43757 2.35419,-0.43758 0.95101,1e-5 1.78971,0.15317 2.5161,0.45946 0.72638,0.30632 1.28503,0.75703 1.67594,1.35213 0.3909,0.59512 0.60094,1.269 0.63012,2.02163 l -1.62781,0.12253 c -0.0875,-0.81098 -0.38362,-1.42359 -0.88829,-1.83785 -0.50468,-0.41423 -1.25003,-0.62136 -2.23605,-0.62137 -1.02686,1e-5 -1.77513,0.18817 -2.24479,0.56448 -0.46968,0.37634 -0.70452,0.82996 -0.70451,1.36089 -1e-5,0.46093 0.16628,0.84016 0.49884,1.13771 0.32673,0.29757 1.18001,0.60241 2.55986,0.91455 1.37984,0.31215 2.32647,0.58491 2.83991,0.81828 0.7468,0.34424 1.29815,0.78036 1.65406,1.30837 0.35589,0.52802 0.53384,1.13626 0.53385,1.82472 -10e-6,0.68263 -0.19546,1.32588 -0.58636,1.92974 -0.39091,0.60386 -0.95248,1.07354 -1.68469,1.40901 -0.73223,0.33548 -1.55634,0.50322 -2.47234,0.50322 -1.16106,0 -2.13395,-0.16919 -2.91868,-0.50759 -0.78473,-0.3384 -1.40026,-0.84745 -1.8466,-1.52716 -0.44633,-0.67971 -0.68117,-1.4484 -0.7045,-2.30606 z"
         id="path3094"
         inkscape:connector-curvature="0" />
      <path
         d="m 306.59736,464.32272 0,-1.36525 c -0.72348,1.05019 -1.70658,1.57529 -2.94931,1.57529 -0.54844,0 -1.06041,-0.10502 -1.53592,-0.31506 -0.4755,-0.21004 -0.82849,-0.47404 -1.05894,-0.79202 -0.23047,-0.31798 -0.39237,-0.70742 -0.48572,-1.16835 -0.0642,-0.30922 -0.0963,-0.79931 -0.0963,-1.47027 l 0,-5.75859 1.5753,0 0,5.15472 c -10e-6,0.82266 0.0321,1.37693 0.0963,1.66282 0.0992,0.41424 0.30922,0.73951 0.63011,0.97581 0.32089,0.23629 0.71764,0.35444 1.19023,0.35444 0.47258,0 0.916,-0.12107 1.33025,-0.3632 0.41424,-0.24212 0.70742,-0.57177 0.87954,-0.98893 0.17211,-0.41716 0.25817,-1.02248 0.25818,-1.81597 l 0,-4.97969 1.57529,0 0,9.29425 z"
         id="path3096"
         inkscape:connector-curvature="0" />
      <path
         d="m 316.84554,461.32966 1.62781,0.20129 c -0.25672,0.95101 -0.73223,1.68907 -1.42652,2.21416 -0.6943,0.5251 -1.58114,0.78765 -2.6605,0.78765 -1.35943,0 -2.43734,-0.41862 -3.23374,-1.25586 -0.7964,-0.83724 -1.1946,-2.01142 -1.1946,-3.52254 0,-1.56362 0.40258,-2.77718 1.20773,-3.64069 0.80515,-0.86348 1.84951,-1.29523 3.13309,-1.29524 1.24273,1e-5 2.25792,0.423 3.04558,1.26899 0.78764,0.846 1.18146,2.03622 1.18147,3.57067 -1e-5,0.0934 -0.003,0.23338 -0.009,0.42008 l -6.93131,0 c 0.0583,1.02103 0.34715,1.80284 0.86642,2.34544 0.51926,0.54261 1.16688,0.81391 1.94286,0.81391 0.57761,0 1.07061,-0.1517 1.47903,-0.45509 0.4084,-0.30339 0.73222,-0.78764 0.97143,-1.45277 z m -5.17222,-2.54673 5.18973,0 c -0.07,-0.78181 -0.26839,-1.36817 -0.59511,-1.75908 -0.50177,-0.60678 -1.15231,-0.91017 -1.95162,-0.91018 -0.72348,10e-6 -1.33172,0.24214 -1.82472,0.72639 -0.49301,0.48427 -0.76577,1.13189 -0.81828,1.94287 z"
         id="path3098"
         inkscape:connector-curvature="0" />
      <path
         d="m 324.76579,460.68204 1.53154,-0.21004 c 0.0408,0.98018 0.22462,1.65114 0.55135,2.01288 0.32673,0.36173 0.7789,0.5426 1.35651,0.5426 0.42591,0 0.79348,-0.0977 1.10271,-0.29318 0.30922,-0.19545 0.52217,-0.46092 0.63887,-0.7964 0.11668,-0.33548 0.17503,-0.87079 0.17503,-1.60593 l 0,-8.83917 1.69782,0 0,8.7429 c -10e-6,1.07354 -0.12982,1.90495 -0.38945,2.49422 -0.25964,0.58928 -0.67096,1.03853 -1.23398,1.34776 -0.56303,0.30922 -1.22378,0.46383 -1.98225,0.46383 -1.12605,0 -1.98808,-0.32381 -2.58611,-0.97143 -0.59803,-0.64762 -0.88538,-1.6103 -0.86204,-2.88804 z"
         id="path3100"
         inkscape:connector-curvature="0" />
      <path
         d="m 333.80625,459.6756 c 0,-1.72116 0.47842,-2.99598 1.43527,-3.82448 0.79931,-0.68845 1.77366,-1.03268 2.92305,-1.03269 1.27774,1e-5 2.3221,0.41863 3.13309,1.25586 0.81098,0.83725 1.21647,1.99393 1.21648,3.47003 -10e-6,1.19606 -0.17942,2.13687 -0.53822,2.82241 -0.35883,0.68555 -0.88101,1.21794 -1.56655,1.59718 -0.68555,0.37923 -1.43382,0.56885 -2.2448,0.56885 -1.30108,0 -2.35274,-0.41716 -3.15497,-1.25148 -0.80224,-0.83433 -1.20335,-2.03622 -1.20335,-3.60568 z m 1.61905,0 c 0,1.19022 0.25963,2.08143 0.7789,2.67363 0.51926,0.59219 1.17272,0.88829 1.96037,0.88829 0.78181,0 1.43235,-0.29756 1.95162,-0.89267 0.51926,-0.59511 0.77889,-1.50236 0.7789,-2.72176 -10e-6,-1.14938 -0.2611,-2.02017 -0.78328,-2.61237 -0.52218,-0.59219 -1.17126,-0.88829 -1.94724,-0.88829 -0.78765,0 -1.44111,0.29464 -1.96037,0.88391 -0.51927,0.58929 -0.7789,1.47904 -0.7789,2.66926 z"
         id="path3102"
         inkscape:connector-curvature="0" />
      <path
         d="m 344.36949,464.32272 0,-9.29425 1.41777,0 0,1.3215 c 0.68263,-1.02102 1.66864,-1.53153 2.95806,-1.53154 0.5601,1e-5 1.07499,0.10065 1.54466,0.30193 0.46967,0.2013 0.82119,0.46531 1.05458,0.79203 0.23337,0.32673 0.39673,0.71472 0.49009,1.16397 0.0583,0.29172 0.0875,0.80224 0.0875,1.53153 l 0,5.71483 -1.5753,0 0,-5.65356 c -1e-5,-0.64179 -0.0613,-1.12167 -0.18378,-1.43965 -0.12253,-0.31797 -0.33987,-0.57177 -0.652,-0.76139 -0.31215,-0.18962 -0.67826,-0.28443 -1.09833,-0.28443 -0.67097,0 -1.25004,0.21296 -1.73721,0.63887 -0.48718,0.42592 -0.73076,1.23399 -0.73076,2.42421 l 0,5.07595 z"
         id="path3104"
         inkscape:connector-curvature="0" />
      <path
         d="m 360.70883,461.32966 1.6278,0.20129 c -0.25672,0.95101 -0.73223,1.68907 -1.42652,2.21416 -0.6943,0.5251 -1.58113,0.78765 -2.6605,0.78765 -1.35943,0 -2.43734,-0.41862 -3.23373,-1.25586 -0.79641,-0.83724 -1.19461,-2.01142 -1.1946,-3.52254 -10e-6,-1.56362 0.40257,-2.77718 1.20772,-3.64069 0.80515,-0.86348 1.84952,-1.29523 3.1331,-1.29524 1.24272,1e-5 2.25791,0.423 3.04557,1.26899 0.78764,0.846 1.18146,2.03622 1.18147,3.57067 -10e-6,0.0934 -0.003,0.23338 -0.009,0.42008 l -6.93131,0 c 0.0583,1.02103 0.34715,1.80284 0.86642,2.34544 0.51926,0.54261 1.16688,0.81391 1.94286,0.81391 0.57761,0 1.07062,-0.1517 1.47903,-0.45509 0.40841,-0.30339 0.73222,-0.78764 0.97144,-1.45277 z m -5.17223,-2.54673 5.18973,0 c -0.07,-0.78181 -0.26839,-1.36817 -0.59511,-1.75908 -0.50177,-0.60678 -1.15231,-0.91017 -1.95162,-0.91018 -0.72348,10e-6 -1.33171,0.24214 -1.82472,0.72639 -0.49301,0.48427 -0.76577,1.13189 -0.81828,1.94287 z"
         id="path3106"
         inkscape:connector-curvature="0" />
      <path
         d="m 363.69314,461.54845 1.55779,-0.24505 c 0.0875,0.62429 0.3311,1.10271 0.73077,1.43527 0.39965,0.33257 0.9583,0.49885 1.67594,0.49885 0.72346,0 1.26023,-0.14732 1.6103,-0.44196 0.35006,-0.29464 0.52509,-0.64033 0.5251,-1.03707 -1e-5,-0.3559 -0.15462,-0.63595 -0.46384,-0.84016 -0.21588,-0.14002 -0.75264,-0.31797 -1.6103,-0.53385 -1.15522,-0.29172 -1.956,-0.54406 -2.40233,-0.75702 -0.44634,-0.21295 -0.78473,-0.50759 -1.01519,-0.88391 -0.23046,-0.37632 -0.34569,-0.79202 -0.34569,-1.24712 0,-0.41423 0.0948,-0.79785 0.28443,-1.15084 0.18961,-0.35297 0.44779,-0.64615 0.77452,-0.87954 0.24504,-0.18086 0.57906,-0.33401 1.00206,-0.45946 0.423,-0.12543 0.87662,-0.18815 1.36088,-0.18816 0.7293,1e-5 1.36963,0.10503 1.92099,0.31506 0.55135,0.21005 0.9583,0.49448 1.22086,0.85328 0.26254,0.35883 0.44341,0.83871 0.5426,1.43965 l -1.54029,0.21004 c -0.07,-0.47842 -0.27277,-0.85182 -0.60824,-1.12021 -0.33549,-0.26838 -0.80953,-0.40257 -1.42214,-0.40258 -0.72348,10e-6 -1.23982,0.11962 -1.54905,0.35882 -0.30922,0.23922 -0.46384,0.51927 -0.46383,0.84016 -10e-6,0.20421 0.0642,0.388 0.19253,0.55135 0.12836,0.16921 0.32964,0.30924 0.60387,0.42008 0.15752,0.0583 0.62136,0.19255 1.39151,0.40258 1.11437,0.29756 1.89181,0.54115 2.33231,0.73076 0.4405,0.18963 0.78619,0.4653 1.03707,0.82703 0.25088,0.36174 0.37632,0.81099 0.37633,1.34776 -1e-5,0.5251 -0.15317,1.01957 -0.45947,1.4834 -0.30631,0.46384 -0.74827,0.82266 -1.32587,1.07646 -0.57762,0.25379 -1.23107,0.38069 -1.96037,0.38069 -1.20773,0 -2.12811,-0.25088 -2.76115,-0.75264 -0.63303,-0.50176 -1.03707,-1.24565 -1.2121,-2.23167 z"
         id="path3108"
         inkscape:connector-curvature="0" />
      <path
         d="m 390.68324,456.65628 c 0.77596,0.846 1.44692,1.48924 2.01288,1.92974 0.56592,0.4405 1.09977,0.76869 1.60155,0.98456 l 0,0.39382 c -0.57763,0.28006 -1.13773,0.63742 -1.68032,1.07208 -0.54262,0.43467 -1.19024,1.07208 -1.94287,1.91223 l -0.67387,0 c 0.54842,-1.17271 1.12311,-2.07413 1.72407,-2.70426 l -13.95888,0 0,-0.88391 13.95888,0 c -0.44343,-0.56594 -0.75265,-0.98602 -0.92767,-1.26024 -0.17505,-0.27421 -0.43468,-0.75555 -0.7789,-1.44402 z"
         id="path3110"
         inkscape:connector-curvature="0" />
      <path
         d="m 399.94248,464.32272 4.92718,-12.82992 1.8291,0 5.25099,12.82992 -1.93412,0 -1.49653,-3.88573 -5.36476,0 -1.40902,3.88573 z m 3.70195,-5.26849 4.34957,0 -1.339,-3.55317 c -0.40842,-1.07936 -0.71181,-1.9662 -0.91017,-2.6605 -0.16337,0.82266 -0.39383,1.63948 -0.69139,2.45046 z"
         id="path3112"
         inkscape:connector-curvature="0" />
      <path
         d="m 414.57524,464.32272 -1.46152,0 0,-12.82992 1.57529,0 0,4.57712 c 0.66513,-0.83432 1.51403,-1.25148 2.54673,-1.25149 0.57177,1e-5 1.11292,0.11524 1.62344,0.34569 0.5105,0.23047 0.93058,0.55428 1.26023,0.97143 0.32964,0.41717 0.58781,0.92039 0.77452,1.50966 0.1867,0.58929 0.28005,1.21941 0.28006,1.89036 -1e-5,1.5928 -0.39384,2.82387 -1.18148,3.6932 -0.78765,0.86933 -1.73283,1.30399 -2.83553,1.30399 -1.09688,0 -1.95746,-0.458 -2.58174,-1.37401 z m -0.0175,-4.71714 c 0,1.11438 0.15169,1.91953 0.45508,2.41546 0.49593,0.81099 1.16689,1.21648 2.01288,1.21648 0.68846,0 1.28357,-0.29901 1.78534,-0.89705 0.50176,-0.59802 0.75264,-1.48923 0.75264,-2.67363 0,-1.21355 -0.24067,-2.10914 -0.72201,-2.68675 -0.48135,-0.5776 -1.06333,-0.86641 -1.74595,-0.86642 -0.68847,10e-6 -1.28358,0.29903 -1.78534,0.89705 -0.50176,0.59803 -0.75264,1.46299 -0.75264,2.59486 z"
         id="path3114"
         inkscape:connector-curvature="0" />
      <path
         d="m 424.55212,464.32272 -1.46152,0 0,-12.82992 1.5753,0 0,4.57712 c 0.66512,-0.83432 1.51403,-1.25148 2.54673,-1.25149 0.57177,1e-5 1.11291,0.11524 1.62343,0.34569 0.5105,0.23047 0.93058,0.55428 1.26024,0.97143 0.32963,0.41717 0.58781,0.92039 0.77452,1.50966 0.18669,0.58929 0.28004,1.21941 0.28005,1.89036 -10e-6,1.5928 -0.39383,2.82387 -1.18147,3.6932 -0.78766,0.86933 -1.73284,1.30399 -2.83554,1.30399 -1.09688,0 -1.95745,-0.458 -2.58174,-1.37401 z m -0.0175,-4.71714 c 0,1.11438 0.15169,1.91953 0.45509,2.41546 0.49592,0.81099 1.16688,1.21648 2.01288,1.21648 0.68845,0 1.28357,-0.29901 1.78533,-0.89705 0.50176,-0.59802 0.75264,-1.48923 0.75265,-2.67363 -10e-6,-1.21355 -0.24068,-2.10914 -0.72202,-2.68675 -0.48134,-0.5776 -1.06333,-0.86641 -1.74595,-0.86642 -0.68847,10e-6 -1.28358,0.29903 -1.78534,0.89705 -0.50176,0.59803 -0.75264,1.46299 -0.75264,2.59486 z"
         id="path3116"
         inkscape:connector-curvature="0" />
      <path
         d="m 433.08498,453.30439 0,-1.81159 1.5753,0 0,1.81159 z m 0,11.01833 0,-9.29425 1.5753,0 0,9.29425 z"
         id="path3118"
         inkscape:connector-curvature="0" />
      <path
         d="m 443.42944,461.32966 1.6278,0.20129 c -0.25672,0.95101 -0.73223,1.68907 -1.42651,2.21416 -0.69431,0.5251 -1.58114,0.78765 -2.66051,0.78765 -1.35942,0 -2.43733,-0.41862 -3.23373,-1.25586 -0.7964,-0.83724 -1.1946,-2.01142 -1.1946,-3.52254 0,-1.56362 0.40257,-2.77718 1.20773,-3.64069 0.80514,-0.86348 1.84951,-1.29523 3.13309,-1.29524 1.24273,1e-5 2.25792,0.423 3.04557,1.26899 0.78764,0.846 1.18147,2.03622 1.18147,3.57067 0,0.0934 -0.003,0.23338 -0.009,0.42008 l -6.93131,0 c 0.0584,1.02103 0.34715,1.80284 0.86642,2.34544 0.51926,0.54261 1.16688,0.81391 1.94286,0.81391 0.57761,0 1.07062,-0.1517 1.47903,-0.45509 0.40841,-0.30339 0.73222,-0.78764 0.97144,-1.45277 z m -5.17223,-2.54673 5.18973,0 c -0.07,-0.78181 -0.26839,-1.36817 -0.59511,-1.75908 -0.50177,-0.60678 -1.15231,-0.91017 -1.95162,-0.91018 -0.72347,10e-6 -1.33171,0.24214 -1.82472,0.72639 -0.49301,0.48427 -0.76577,1.13189 -0.81828,1.94287 z"
         id="path3120"
         inkscape:connector-curvature="0" />
      <path
         d="m 451.6385,460.2007 1.60155,-0.14003 c 0.0758,0.64179 0.25233,1.16835 0.52947,1.57967 0.27714,0.41133 0.70742,0.74389 1.29087,0.99769 0.58344,0.2538 1.23981,0.3807 1.96912,0.3807 0.64762,0 1.21939,-0.0963 1.71533,-0.28881 0.49592,-0.19253 0.86494,-0.45654 1.10708,-0.79202 0.24212,-0.33548 0.36319,-0.70159 0.36319,-1.09833 0,-0.40258 -0.11669,-0.7541 -0.35006,-1.05458 -0.23339,-0.30047 -0.61846,-0.55281 -1.15522,-0.75702 -0.34424,-0.13418 -1.10563,-0.34276 -2.28418,-0.62574 -1.17856,-0.28296 -2.00413,-0.54989 -2.47672,-0.80078 -0.61262,-0.32088 -1.06916,-0.71908 -1.36963,-1.1946 -0.30048,-0.47549 -0.45071,-1.00789 -0.45071,-1.59717 0,-0.64761 0.18378,-1.25294 0.55135,-1.81597 0.36757,-0.56301 0.90434,-0.99038 1.61031,-1.28212 0.70596,-0.29171 1.49069,-0.43757 2.35419,-0.43758 0.95101,1e-5 1.78971,0.15317 2.5161,0.45946 0.72638,0.30632 1.28503,0.75703 1.67594,1.35213 0.3909,0.59512 0.60094,1.269 0.63012,2.02163 l -1.62781,0.12253 c -0.0875,-0.81098 -0.38362,-1.42359 -0.88829,-1.83785 -0.50469,-0.41423 -1.25003,-0.62136 -2.23605,-0.62137 -1.02686,1e-5 -1.77513,0.18817 -2.2448,0.56448 -0.46967,0.37634 -0.70451,0.82996 -0.7045,1.36089 -1e-5,0.46093 0.16628,0.84016 0.49884,1.13771 0.32673,0.29757 1.18001,0.60241 2.55986,0.91455 1.37984,0.31215 2.32647,0.58491 2.83991,0.81828 0.7468,0.34424 1.29815,0.78036 1.65406,1.30837 0.35589,0.52802 0.53384,1.13626 0.53385,1.82472 -1e-5,0.68263 -0.19546,1.32588 -0.58636,1.92974 -0.39091,0.60386 -0.95248,1.07354 -1.68469,1.40901 -0.73223,0.33548 -1.55634,0.50322 -2.47234,0.50322 -1.16106,0 -2.13395,-0.16919 -2.91868,-0.50759 -0.78473,-0.3384 -1.40026,-0.84745 -1.8466,-1.52716 -0.44633,-0.67971 -0.68117,-1.4484 -0.7045,-2.30606 z"
         id="path3122"
         inkscape:connector-curvature="0" />
      <path
         d="m 470.07823,464.32272 0,-1.36525 c -0.72348,1.05019 -1.70658,1.57529 -2.94931,1.57529 -0.54844,0 -1.06041,-0.10502 -1.53592,-0.31506 -0.4755,-0.21004 -0.82849,-0.47404 -1.05895,-0.79202 -0.23046,-0.31798 -0.39236,-0.70742 -0.48571,-1.16835 -0.0642,-0.30922 -0.0963,-0.79931 -0.0963,-1.47027 l 0,-5.75859 1.5753,0 0,5.15472 c -10e-6,0.82266 0.0321,1.37693 0.0963,1.66282 0.0992,0.41424 0.30922,0.73951 0.63011,0.97581 0.32089,0.23629 0.71764,0.35444 1.19023,0.35444 0.47258,0 0.916,-0.12107 1.33025,-0.3632 0.41424,-0.24212 0.70742,-0.57177 0.87954,-0.98893 0.17211,-0.41716 0.25817,-1.02248 0.25817,-1.81597 l 0,-4.97969 1.5753,0 0,9.29425 z"
         id="path3124"
         inkscape:connector-curvature="0" />
      <path
         d="m 480.32641,461.32966 1.62781,0.20129 c -0.25673,0.95101 -0.73223,1.68907 -1.42652,2.21416 -0.69431,0.5251 -1.58114,0.78765 -2.6605,0.78765 -1.35943,0 -2.43734,-0.41862 -3.23374,-1.25586 -0.7964,-0.83724 -1.1946,-2.01142 -1.1946,-3.52254 0,-1.56362 0.40257,-2.77718 1.20773,-3.64069 0.80515,-0.86348 1.84951,-1.29523 3.13309,-1.29524 1.24273,1e-5 2.25792,0.423 3.04557,1.26899 0.78764,0.846 1.18147,2.03622 1.18148,3.57067 -1e-5,0.0934 -0.003,0.23338 -0.009,0.42008 l -6.93131,0 c 0.0583,1.02103 0.34714,1.80284 0.86641,2.34544 0.51926,0.54261 1.16688,0.81391 1.94287,0.81391 0.5776,0 1.07061,-0.1517 1.47903,-0.45509 0.4084,-0.30339 0.73221,-0.78764 0.97143,-1.45277 z m -5.17223,-2.54673 5.18973,0 c -0.07,-0.78181 -0.26839,-1.36817 -0.59511,-1.75908 -0.50177,-0.60678 -1.15231,-0.91017 -1.95162,-0.91018 -0.72347,10e-6 -1.33171,0.24214 -1.82472,0.72639 -0.49301,0.48427 -0.76577,1.13189 -0.81828,1.94287 z"
         id="path3126"
         inkscape:connector-curvature="0" />
      <path
         d="m 488.53545,460.2007 1.60156,-0.14003 c 0.0758,0.64179 0.25233,1.16835 0.52947,1.57967 0.27713,0.41133 0.70742,0.74389 1.29087,0.99769 0.58344,0.2538 1.23981,0.3807 1.96912,0.3807 0.64762,0 1.21939,-0.0963 1.71532,-0.28881 0.49592,-0.19253 0.86495,-0.45654 1.10709,-0.79202 0.24212,-0.33548 0.36318,-0.70159 0.36319,-1.09833 -1e-5,-0.40258 -0.1167,-0.7541 -0.35006,-1.05458 -0.23339,-0.30047 -0.61846,-0.55281 -1.15522,-0.75702 -0.34424,-0.13418 -1.10563,-0.34276 -2.28418,-0.62574 -1.17856,-0.28296 -2.00414,-0.54989 -2.47672,-0.80078 -0.61262,-0.32088 -1.06916,-0.71908 -1.36963,-1.1946 -0.30048,-0.47549 -0.45072,-1.00789 -0.45071,-1.59717 -1e-5,-0.64761 0.18378,-1.25294 0.55135,-1.81597 0.36757,-0.56301 0.90433,-0.99038 1.6103,-1.28212 0.70597,-0.29171 1.4907,-0.43757 2.3542,-0.43758 0.951,1e-5 1.7897,0.15317 2.5161,0.45946 0.72638,0.30632 1.28502,0.75703 1.67594,1.35213 0.3909,0.59512 0.60094,1.269 0.63012,2.02163 l -1.62781,0.12253 c -0.0875,-0.81098 -0.38362,-1.42359 -0.88829,-1.83785 -0.50469,-0.41423 -1.25004,-0.62136 -2.23605,-0.62137 -1.02686,1e-5 -1.77513,0.18817 -2.2448,0.56448 -0.46967,0.37634 -0.70451,0.82996 -0.70451,1.36089 0,0.46093 0.16628,0.84016 0.49885,1.13771 0.32672,0.29757 1.18001,0.60241 2.55986,0.91455 1.37983,0.31215 2.32647,0.58491 2.83991,0.81828 0.7468,0.34424 1.29815,0.78036 1.65406,1.30837 0.35589,0.52802 0.53384,1.13626 0.53385,1.82472 -10e-6,0.68263 -0.19546,1.32588 -0.58636,1.92974 -0.39092,0.60386 -0.95248,1.07354 -1.68469,1.40901 -0.73223,0.33548 -1.55635,0.50322 -2.47234,0.50322 -1.16106,0 -2.13395,-0.16919 -2.91868,-0.50759 -0.78473,-0.3384 -1.40027,-0.84745 -1.8466,-1.52716 -0.44633,-0.67971 -0.68117,-1.4484 -0.70451,-2.30606 z"
         id="path3128"
         inkscape:connector-curvature="0" />
      <path
         d="m 500.88403,464.32272 0,-9.29425 1.40902,0 0,1.30399 c 0.29172,-0.45507 0.67971,-0.82118 1.16397,-1.09833 0.48425,-0.27712 1.03561,-0.41569 1.65406,-0.4157 0.68846,1e-5 1.25294,0.14295 1.69345,0.42883 0.44049,0.2859 0.75117,0.68555 0.93205,1.19898 0.73513,-1.0852 1.69197,-1.6278 2.87054,-1.62781 0.92183,1e-5 1.63071,0.25526 2.12665,0.76577 0.49591,0.51052 0.74388,1.29671 0.74389,2.35857 l 0,6.37995 -1.56654,0 0,-5.85485 c -2e-5,-0.63011 -0.0511,-1.08374 -0.15316,-1.36088 -0.10211,-0.27713 -0.28736,-0.5003 -0.55573,-0.66951 -0.26839,-0.16919 -0.58345,-0.25379 -0.94518,-0.25379 -0.65346,0 -1.19607,0.21734 -1.6278,0.65199 -0.43176,0.43468 -0.64763,1.13043 -0.64763,2.08727 l 0,5.39977 -1.57529,0 0,-6.03864 c -1e-5,-0.70012 -0.12837,-1.22522 -0.38508,-1.57529 -0.25672,-0.35006 -0.6768,-0.5251 -1.26023,-0.5251 -0.44343,0 -0.85329,0.11669 -1.22961,0.35006 -0.37633,0.23339 -0.64909,0.5747 -0.81828,1.02395 -0.1692,0.44925 -0.2538,1.09688 -0.2538,1.94286 l 0,4.82216 z"
         id="path3130"
         inkscape:connector-curvature="0" />
      <path
         d="m 515.8406,453.30439 0,-1.81159 1.5753,0 0,1.81159 z m 0,11.01833 0,-9.29425 1.5753,0 0,9.29425 z"
         id="path3132"
         inkscape:connector-curvature="0" />
      <path
         d="m 523.262,462.91371 0.22754,1.39151 c -0.44342,0.0933 -0.84016,0.14003 -1.19022,0.14003 -0.57178,0 -1.0152,-0.0904 -1.33025,-0.2713 -0.31506,-0.18087 -0.53677,-0.41862 -0.66513,-0.71326 -0.12836,-0.29464 -0.19254,-0.91455 -0.19253,-1.85973 l 0,-5.34726 -1.15522,0 0,-1.22523 1.15522,0 0,-2.30169 1.56654,-0.94517 0,3.24686 1.58405,0 0,1.22523 -1.58405,0 0,5.43478 c 0,0.44925 0.0277,0.73805 0.0831,0.86641 0.0554,0.12836 0.14586,0.23046 0.2713,0.30631 0.12544,0.0759 0.30485,0.11377 0.53823,0.11377 0.17503,0 0.40549,-0.0204 0.69138,-0.0613 z"
         id="path3134"
         inkscape:connector-curvature="0" />
      <path
         d="m 524.79355,464.32272 0,-12.82992 1.5753,0 0,4.60337 c 0.73513,-0.85182 1.66281,-1.27773 2.78302,-1.27774 0.68846,1e-5 1.28649,0.13566 1.79409,0.40695 0.50759,0.27131 0.87078,0.64617 1.08958,1.12459 0.21878,0.47843 0.32818,1.17273 0.32819,2.08289 l 0,5.88986 -1.5753,0 0,-5.88986 c -10e-6,-0.78764 -0.17066,-1.36087 -0.51197,-1.7197 -0.34132,-0.35881 -0.82412,-0.53822 -1.4484,-0.53822 -0.46676,0 -0.9058,0.12107 -1.31712,0.36319 -0.41133,0.24214 -0.70451,0.57032 -0.87954,0.98456 -0.17504,0.41425 -0.26256,0.98602 -0.26255,1.71532 l 0,5.08471 z"
         id="path3136"
         inkscape:connector-curvature="0" />
    </g>
  </g>
  <g
     inkscape:groupmode="layer"
     id="layer2"
     inkscape:label="Paths"
     style="display:none">
    <g
       transform="matrix(0.44808458,0,0,0.44808458,-24.29834,-191.95278)"
       id="use3060">
      <text
         xml:space="preserve"
         style="font-size:40px;font-style:normal;font-variant:normal;font-weight:normal;font-stretch:normal;line-height:125%;letter-spacing:0px;word-spacing:0px;fill:#000000;fill-opacity:1;stroke:none;font-family:Arial;-inkscape-font-specification:Arial"
         x="54.285713"
         y="471.005"
         id="text3068"
         sodipodi:linespacing="125%"><tspan
           sodipodi:role="line"
           id="tspan3070"
           x="54.285713"
           y="471.005">Abbie Sue Jones → Abbie Sue Smith</tspan></text>
    </g>
  </g>
</svg>
