<?xml version="1.0" encoding="UTF-8" standalone="no"?>
<!-- Created with Inkscape (http://www.inkscape.org/) -->

<svg
   xmlns:dc="http://purl.org/dc/elements/1.1/"
   xmlns:cc="http://creativecommons.org/ns#"
   xmlns:rdf="http://www.w3.org/1999/02/22-rdf-syntax-ns#"
   xmlns:svg="http://www.w3.org/2000/svg"
   xmlns="http://www.w3.org/2000/svg"
   xmlns:xlink="http://www.w3.org/1999/xlink"
   xmlns:sodipodi="http://sodipodi.sourceforge.net/DTD/sodipodi-0.dtd"
   xmlns:inkscape="http://www.inkscape.org/namespaces/inkscape"
   width="296.01114"
   height="54.575512"
   id="svg2"
   version="1.1"
   inkscape:version="0.48.4 r9939"
   sodipodi:docname="bad.svg">
  <defs
     id="defs4">
    <marker
       inkscape:stockid="Arrow2Lend"
       orient="auto"
       refY="0"
       refX="0"
       id="Arrow2Lend"
       style="overflow:visible">
      <path
         id="path3804"
         style="fill-rule:evenodd;stroke-width:0.625;stroke-linejoin:round"
         d="M 8.7185878,4.0337352 -2.2072895,0.01601326 8.7185884,-4.0017078 c -1.7454984,2.3720609 -1.7354408,5.6174519 -6e-7,8.035443 z"
         transform="matrix(-1.1,0,0,-1.1,-1.1,0)"
         inkscape:connector-curvature="0" />
    </marker>
    <marker
       inkscape:stockid="Arrow1Lend"
       orient="auto"
       refY="0"
       refX="0"
       id="Arrow1Lend"
       style="overflow:visible">
      <path
         id="path3786"
         d="M 0,0 5,-5 -12.5,0 5,5 0,0 z"
         style="fill-rule:evenodd;stroke:#000000;stroke-width:1pt"
         transform="matrix(-0.8,0,0,-0.8,-10,0)"
         inkscape:connector-curvature="0" />
    </marker>
  </defs>
  <sodipodi:namedview
     id="base"
     pagecolor="#ffffff"
     bordercolor="#666666"
     borderopacity="1.0"
     inkscape:pageopacity="0.0"
     inkscape:pageshadow="2"
     inkscape:zoom="5.6"
     inkscape:cx="58.935106"
     inkscape:cy="-18.765687"
     inkscape:document-units="px"
     inkscape:current-layer="layer3"
     showgrid="false"
     inkscape:window-width="1600"
     inkscape:window-height="847"
     inkscape:window-x="-8"
     inkscape:window-y="-8"
     inkscape:window-maximized="1"
     fit-margin-top="0"
     fit-margin-left="0"
     fit-margin-right="0"
     fit-margin-bottom="0" />
  <metadata
     id="metadata7">
    <rdf:RDF>
      <cc:Work
         rdf:about="">
        <dc:format>image/svg+xml</dc:format>
        <dc:type
           rdf:resource="http://purl.org/dc/dcmitype/StillImage" />
        <dc:title />
      </cc:Work>
    </rdf:RDF>
  </metadata>
  <g
     inkscape:label="Text"
     inkscape:groupmode="layer"
     id="layer1"
     transform="translate(-211.60875,-411.90348)"
     style="display:none"
     sodipodi:insensitive="true">
    <text
       xml:space="preserve"
       style="font-size:19.17997742px;font-style:normal;font-variant:normal;font-weight:normal;font-stretch:normal;line-height:125%;letter-spacing:0px;word-spacing:0px;fill:#000000;fill-opacity:1;stroke:none;font-family:Arial;-inkscape-font-specification:Arial"
       x="213.20941"
       y="457.7222"
       id="text2985"
       sodipodi:linespacing="125%"><tspan
         sodipodi:role="line"
         id="tspan2987"
         x="213.20941"
         y="457.7222">Benjamin Alexander Davis → BAD</tspan></text>
    <use
       style="stroke-width:1.5;stroke-miterlimit:4;stroke-dasharray:none"
       x="0"
       y="0"
       xlink:href="#use2997"
       id="use2999"
       transform="translate(26.882402,2.3975019e-8)"
       width="744.09448"
       height="1052.3622" />
  </g>
  <g
     inkscape:groupmode="layer"
     id="layer3"
     inkscape:label="Paths"
     style="display:inline">
    <g
       style="font-size:19.17997742px;font-style:normal;font-variant:normal;font-weight:normal;font-stretch:normal;line-height:125%;letter-spacing:0px;word-spacing:0px;fill:#000000;fill-opacity:1;stroke:none;font-family:Arial;-inkscape-font-specification:Arial"
       id="use3159">
      <path
         d="m 3.0054451,45.818718 0,-13.729417 5.1508729,0 c 1.0488974,1.3e-5 1.890206,0.138931 2.523928,0.416752 0.633703,0.277848 1.13006,0.705526 1.48907,1.283036 0.358989,0.577533 0.538489,1.181589 0.538501,1.81217 -1.2e-5,0.586897 -0.15922,1.139445 -0.477627,1.657645 -0.318428,0.518217 -0.799175,0.93653 -1.442244,1.25494 0.830373,0.243503 1.468768,0.658694 1.915188,1.245574 0.446397,0.586893 0.669602,1.279919 0.669613,2.07908 -1.1e-5,0.643082 -0.135807,1.240895 -0.407387,1.79344 -0.271602,0.55255 -0.607189,0.978667 -1.006761,1.278353 -0.399593,0.299688 -0.900632,0.526014 -1.503119,0.678979 -0.602504,0.152965 -1.340795,0.229448 -2.214875,0.229448 z m 1.8168534,-7.96044 2.9687758,0 c 0.8054022,8e-6 1.3829237,-0.05306 1.7325663,-0.159209 0.4620093,-0.137348 0.8100834,-0.365235 1.0442224,-0.683661 0.234121,-0.318408 0.351187,-0.717991 0.351196,-1.198749 -9e-6,-0.455763 -0.10927,-0.856907 -0.327783,-1.203431 C 10.372745,34.266727 10.060572,34.029474 9.6547537,33.901471 9.2489197,33.773492 8.5527721,33.709496 7.5663089,33.709484 l -2.7440104,0 z m 0,6.340256 3.4183065,0 c 0.5868801,2e-6 0.9989495,-0.02185 1.2362095,-0.06556 0.418305,-0.07492 0.7679395,-0.19979 1.0489045,-0.374609 0.280948,-0.174815 0.511957,-0.429237 0.693027,-0.763266 0.181051,-0.334023 0.271582,-0.719558 0.271591,-1.156605 -9e-6,-0.511961 -0.131122,-0.956809 -0.393339,-1.334544 C 10.834763,40.126229 10.47108,39.860881 10.00595,39.70791 9.5408022,39.554951 8.8711894,39.478468 7.9971092,39.478462 l -3.1748107,0 z"
         id="path3167"
         inkscape:connector-curvature="0" />
      <path
         d="m 22.48511,42.615812 1.741931,0.2154 c -0.274723,1.017689 -0.783566,1.807489 -1.526531,2.369401 -0.742982,0.561914 -1.691991,0.84287 -2.847028,0.84287 -1.454735,0 -2.608218,-0.447969 -3.46045,-1.343909 -0.852237,-0.895938 -1.278354,-2.152437 -1.278353,-3.769503 -1e-6,-1.673246 0.430799,-2.971889 1.292401,-3.895933 0.861597,-0.924025 1.97918,-1.386042 3.35275,-1.386053 1.329855,1.1e-5 2.41622,0.452663 3.259097,1.357958 0.842861,0.905313 1.264296,2.178982 1.264306,3.821011 -10e-6,0.0999 -0.0031,0.249744 -0.0094,0.449531 l -7.417257,0 c 0.06243,1.092612 0.371485,1.929238 0.927158,2.509879 0.555666,0.580646 1.248691,0.870967 2.079079,0.870966 0.618099,1e-6 1.145672,-0.162329 1.582723,-0.486991 0.437036,-0.324659 0.783549,-0.842868 1.03954,-1.554627 z m -5.534847,-2.72528 5.553577,0 c -0.07493,-0.83662 -0.287208,-1.46409 -0.636835,-1.88241 -0.536946,-0.649314 -1.233094,-0.973975 -2.088445,-0.973984 -0.774196,9e-6 -1.425079,0.259113 -1.952649,0.777314 -0.527577,0.518217 -0.81946,1.211242 -0.875648,2.07908 z"
         id="path3169"
         inkscape:connector-curvature="0" />
      <path
         d="m 26.352947,45.818718 0,-9.945867 1.517166,0 0,1.414148 c 0.730484,-1.092599 1.785631,-1.638903 3.165445,-1.638914 0.599368,1.1e-5 1.150355,0.107711 1.652962,0.323101 0.502592,0.215409 0.878762,0.497927 1.12851,0.847552 0.24973,0.349644 0.424547,0.764835 0.524452,1.245575 0.06243,0.312182 0.09364,0.858486 0.09365,1.638914 l 0,6.115491 -1.68574,0 0,-6.049934 c -7e-6,-0.686777 -0.06556,-1.200303 -0.196669,-1.54058 -0.131121,-0.340261 -0.36369,-0.611853 -0.69771,-0.814774 -0.334032,-0.202905 -0.72581,-0.304361 -1.175335,-0.30437 -0.718005,9e-6 -1.33767,0.227896 -1.858997,0.683662 -0.521334,0.455781 -0.781999,1.320503 -0.781996,2.594166 l 0,5.43183 z"
         id="path3171"
         inkscape:connector-curvature="0" />
      <path
         d="m 37.019935,34.046632 0,-1.957331 1.68574,0 0,1.957331 z m -2.135271,15.630558 0.318418,-1.432879 c 0.337148,0.08741 0.602496,0.13111 0.796044,0.131113 0.343391,-3e-6 0.599373,-0.113946 0.767948,-0.341831 0.168573,-0.227889 0.25286,-0.797606 0.252861,-1.709153 l 0,-10.451589 1.68574,0 0,10.48905 c -3e-6,1.223721 -0.159211,2.075955 -0.477626,2.556706 -0.405829,0.624344 -1.080124,0.936518 -2.022889,0.936522 -0.455774,-4e-6 -0.895939,-0.05932 -1.320496,-0.177939 z"
         id="path3173"
         inkscape:connector-curvature="0" />
      <path
         d="m 47.789942,44.591874 c -0.624355,0.530696 -1.22529,0.905305 -1.802805,1.123826 -0.577528,0.218522 -1.197193,0.327783 -1.858997,0.327783 -1.092613,0 -1.93236,-0.266909 -2.519245,-0.800726 -0.586889,-0.533817 -0.880332,-1.215917 -0.880331,-2.046302 -10e-7,-0.486988 0.110821,-0.931836 0.332465,-1.334544 0.221642,-0.4027 0.511964,-0.7258 0.870966,-0.969301 0.358998,-0.24349 0.763263,-0.427673 1.212796,-0.552548 0.330901,-0.0874 0.830379,-0.17169 1.498436,-0.252861 1.361073,-0.162324 2.363151,-0.355872 3.006237,-0.580644 0.0062,-0.231002 0.0094,-0.377724 0.0094,-0.440165 -8e-6,-0.686776 -0.159216,-1.170645 -0.477626,-1.45161 -0.430807,-0.380844 -1.070764,-0.57127 -1.919871,-0.571278 -0.792927,8e-6 -1.378253,0.138926 -1.75598,0.416752 -0.377733,0.277843 -0.657129,0.769517 -0.838187,1.475023 l -1.648279,-0.224766 c 0.149842,-0.705505 0.396459,-1.275222 0.739852,-1.709153 0.34339,-0.433913 0.839746,-0.767939 1.489071,-1.002079 0.649318,-0.23412 1.401657,-0.351185 2.257019,-0.351196 0.849107,1.1e-5 1.539011,0.09991 2.069714,0.299688 0.530688,0.199801 0.920905,0.451101 1.170653,0.7539 0.24973,0.302818 0.424547,0.685231 0.524452,1.14724 0.05618,0.287208 0.08428,0.805416 0.08429,1.554627 l 0,2.247654 c -9e-6,1.567116 0.03589,2.558268 0.1077,2.973458 0.07179,0.415192 0.21383,0.813214 0.426118,1.194066 l -1.760662,0 C 47.952303,45.469083 47.83992,45.060136 47.78998,44.591874 z m -0.140478,-3.76482 c -0.611869,0.249744 -1.52966,0.462022 -2.753376,0.636835 -0.693031,0.0999 -1.183144,0.212283 -1.47034,0.337148 -0.287203,0.124874 -0.508847,0.307495 -0.664931,0.547866 -0.15609,0.240377 -0.234133,0.507286 -0.23413,0.800726 -3e-6,0.449533 0.170132,0.824142 0.510404,1.123827 0.340267,0.299688 0.838184,0.449532 1.493753,0.449531 0.649317,10e-7 1.226839,-0.142038 1.732567,-0.426118 0.505715,-0.284076 0.877202,-0.672733 1.114461,-1.16597 0.181054,-0.380849 0.271584,-0.942762 0.271592,-1.68574 z"
         id="path3175"
         inkscape:connector-curvature="0" />
      <path
         d="m 51.976196,45.818718 0,-9.945867 1.507801,0 0,1.395418 c 0.312171,-0.486983 0.727362,-0.878761 1.245574,-1.175335 0.518205,-0.296556 1.108213,-0.444838 1.770028,-0.444849 0.736724,1.1e-5 1.34078,0.152976 1.81217,0.458896 0.471375,0.30594 0.80384,0.733618 0.997397,1.283036 0.786669,-1.161278 1.810599,-1.741921 3.071793,-1.741932 0.986457,1.1e-5 1.74504,0.273163 2.275749,0.819457 0.530682,0.546314 0.796029,1.387622 0.796044,2.523928 l 0,6.827248 -1.676375,0 0,-6.265334 c -1.3e-5,-0.67429 -0.05464,-1.15972 -0.163891,-1.456293 -0.109274,-0.296557 -0.307504,-0.53537 -0.594692,-0.716439 -0.287212,-0.181053 -0.62436,-0.271583 -1.011444,-0.271592 -0.699281,9e-6 -1.279924,0.232578 -1.741932,0.697709 -0.462026,0.465147 -0.693035,1.209682 -0.693026,2.233606 l 0,5.778343 -1.68574,0 0,-6.462004 c -8e-6,-0.749211 -0.137364,-1.311124 -0.41207,-1.68574 -0.27472,-0.374601 -0.72425,-0.561905 -1.348592,-0.561914 -0.47451,9e-6 -0.913114,0.124878 -1.315814,0.374609 -0.402709,0.249748 -0.694591,0.614991 -0.875649,1.095731 -0.181064,0.480755 -0.271594,1.173781 -0.271591,2.07908 l 0,5.160238 z"
         id="path3177"
         inkscape:connector-curvature="0" />
      <path
         d="m 67.981365,34.027902 0,-1.938601 1.68574,0 0,1.938601 z m 0,11.790816 0,-9.945867 1.68574,0 0,9.945867 z"
         id="path3179"
         inkscape:connector-curvature="0" />
      <path
         d="m 72.242538,45.818718 0,-9.945867 1.517166,0 0,1.414148 c 0.730484,-1.092599 1.785631,-1.638903 3.165446,-1.638914 0.599367,1.1e-5 1.150354,0.107711 1.652961,0.323101 0.502593,0.215409 0.878762,0.497927 1.12851,0.847552 0.24973,0.349644 0.424548,0.764835 0.524452,1.245575 0.06243,0.312182 0.09364,0.858486 0.09365,1.638914 l 0,6.115491 -1.685741,0 0,-6.049934 c -7e-6,-0.686777 -0.06556,-1.200303 -0.196669,-1.54058 -0.131121,-0.340261 -0.36369,-0.611853 -0.697709,-0.814774 -0.334033,-0.202905 -0.725811,-0.304361 -1.175336,-0.30437 -0.718005,9e-6 -1.33767,0.227896 -1.858997,0.683662 -0.521334,0.455781 -0.781999,1.320503 -0.781996,2.594166 l 0,5.43183 z"
         id="path3181"
         inkscape:connector-curvature="0" />
      <path
         d="m 85.897036,45.818718 5.272621,-13.729417 1.957332,0 5.619134,13.729417 -2.069714,0 -1.601454,-4.158159 -5.740882,0 -1.507801,4.158159 z m 3.96149,-5.637864 4.654516,0 -1.432879,-3.802281 c -0.437051,-1.155034 -0.761711,-2.104042 -0.973983,-2.847028 -0.174824,0.880342 -0.421441,1.754429 -0.739853,2.622262 z"
         id="path3183"
         inkscape:connector-curvature="0" />
      <path
         d="m 99.963599,45.818718 0,-13.729417 1.685741,0 0,13.729417 z"
         id="path3185"
         inkscape:connector-curvature="0" />
      <path
         d="m 111.08012,42.615812 1.74193,0.2154 c -0.27472,1.017689 -0.78356,1.807489 -1.52653,2.369401 -0.74298,0.561914 -1.69199,0.84287 -2.84702,0.84287 -1.45474,0 -2.60822,-0.447969 -3.46045,-1.343909 -0.85224,-0.895938 -1.27836,-2.152437 -1.27836,-3.769503 0,-1.673246 0.4308,-2.971889 1.2924,-3.895933 0.8616,-0.924025 1.97918,-1.386042 3.35275,-1.386053 1.32986,1.1e-5 2.41622,0.452663 3.2591,1.357958 0.84286,0.905313 1.2643,2.178982 1.26431,3.821011 -10e-6,0.0999 -0.003,0.249744 -0.009,0.449531 l -7.41726,0 c 0.0624,1.092612 0.37149,1.929238 0.92716,2.509879 0.55567,0.580646 1.24869,0.870967 2.07908,0.870966 0.6181,1e-6 1.14567,-0.162329 1.58272,-0.486991 0.43704,-0.324659 0.78355,-0.842868 1.03954,-1.554627 z m -5.53484,-2.72528 5.55357,0 c -0.0749,-0.83662 -0.2872,-1.46409 -0.63683,-1.88241 -0.53695,-0.649314 -1.2331,-0.973975 -2.08845,-0.973984 -0.77419,9e-6 -1.42508,0.259113 -1.95265,0.777314 -0.52757,0.518217 -0.81945,1.211242 -0.87564,2.07908 z"
         id="path3187"
         inkscape:connector-curvature="0" />
      <path
         d="m 113.82413,45.818718 3.63371,-5.169603 -3.36212,-4.776264 2.10718,0 1.52653,2.33194 c 0.2872,0.443295 0.51821,0.814782 0.69303,1.114462 0.27471,-0.412063 0.52757,-0.777306 0.75858,-1.095731 l 1.67638,-2.350671 2.01352,0 -3.43704,4.682611 3.69926,5.263256 -2.06971,0 -2.04162,-3.090524 -0.54318,-0.833505 -2.6129,3.924029 z"
         id="path3189"
         inkscape:connector-curvature="0" />
      <path
         d="m 131.02805,44.591874 c -0.62436,0.530696 -1.22529,0.905305 -1.80281,1.123826 -0.57753,0.218522 -1.19719,0.327783 -1.85899,0.327783 -1.09262,0 -1.93236,-0.266909 -2.51925,-0.800726 -0.58689,-0.533817 -0.88033,-1.215917 -0.88033,-2.046302 0,-0.486988 0.11082,-0.931836 0.33246,-1.334544 0.22165,-0.4027 0.51197,-0.7258 0.87097,-0.969301 0.359,-0.24349 0.76326,-0.427673 1.2128,-0.552548 0.3309,-0.0874 0.83038,-0.17169 1.49843,-0.252861 1.36108,-0.162324 2.36315,-0.355872 3.00624,-0.580644 0.006,-0.231002 0.009,-0.377724 0.009,-0.440165 0,-0.686776 -0.15921,-1.170645 -0.47762,-1.45161 -0.43081,-0.380844 -1.07076,-0.57127 -1.91987,-0.571278 -0.79293,8e-6 -1.37826,0.138926 -1.75598,0.416752 -0.37774,0.277843 -0.65713,0.769517 -0.83819,1.475023 l -1.64828,-0.224766 c 0.14984,-0.705505 0.39646,-1.275222 0.73985,-1.709153 0.34339,-0.433913 0.83975,-0.767939 1.48907,-1.002079 0.64932,-0.23412 1.40166,-0.351185 2.25702,-0.351196 0.84911,1.1e-5 1.53901,0.09991 2.06972,0.299688 0.53069,0.199801 0.9209,0.451101 1.17065,0.7539 0.24973,0.302818 0.42455,0.685231 0.52445,1.14724 0.0562,0.287208 0.0843,0.805416 0.0843,1.554627 l 0,2.247654 c -1e-5,1.567116 0.0359,2.558268 0.1077,2.973458 0.0718,0.415192 0.21383,0.813214 0.42612,1.194066 l -1.76066,0 c -0.17483,-0.349635 -0.28721,-0.758582 -0.33715,-1.226844 z m -0.14048,-3.76482 c -0.61187,0.249744 -1.52966,0.462022 -2.75338,0.636835 -0.69303,0.0999 -1.18314,0.212283 -1.47034,0.337148 -0.2872,0.124874 -0.50884,0.307495 -0.66493,0.547866 -0.15609,0.240377 -0.23413,0.507286 -0.23413,0.800726 0,0.449533 0.17013,0.824142 0.51041,1.123827 0.34026,0.299688 0.83818,0.449532 1.49375,0.449531 0.64932,10e-7 1.22684,-0.142038 1.73257,-0.426118 0.50571,-0.284076 0.8772,-0.672733 1.11446,-1.16597 0.18105,-0.380849 0.27158,-0.942762 0.27159,-1.68574 z"
         id="path3191"
         inkscape:connector-curvature="0" />
      <path
         d="m 135.2143,45.818718 0,-9.945867 1.51717,0 0,1.414148 c 0.73048,-1.092599 1.78563,-1.638903 3.16544,-1.638914 0.59937,1.1e-5 1.15036,0.107711 1.65297,0.323101 0.50259,0.215409 0.87876,0.497927 1.1285,0.847552 0.24973,0.349644 0.42455,0.764835 0.52446,1.245575 0.0624,0.312182 0.0936,0.858486 0.0936,1.638914 l 0,6.115491 -1.68574,0 0,-6.049934 c -1e-5,-0.686777 -0.0656,-1.200303 -0.19667,-1.54058 -0.13112,-0.340261 -0.36369,-0.611853 -0.69771,-0.814774 -0.33403,-0.202905 -0.72581,-0.304361 -1.17534,-0.30437 -0.718,9e-6 -1.33767,0.227896 -1.85899,0.683662 -0.52134,0.455781 -0.782,1.320503 -0.782,2.594166 l 0,5.43183 z"
         id="path3193"
         inkscape:connector-curvature="0" />
      <path
         d="m 152.3433,45.818718 0,-1.25494 c -0.6306,0.98647 -1.55775,1.479705 -2.78147,1.479705 -0.79293,0 -1.52185,-0.218522 -2.18678,-0.655565 -0.66493,-0.437043 -1.18002,-1.047343 -1.54526,-1.830901 -0.36525,-0.783554 -0.54787,-1.684176 -0.54787,-2.701867 0,-0.992708 0.16545,-1.89333 0.49636,-2.701867 0.3309,-0.808523 0.82726,-1.428188 1.48907,-1.858997 0.66181,-0.430791 1.40166,-0.64619 2.21956,-0.646201 0.59937,1.1e-5 1.13318,0.126441 1.60145,0.379292 0.46826,0.252871 0.84911,0.582214 1.14256,0.988031 l 0,-4.926107 1.67637,0 0,13.729417 z m -5.32881,-4.963568 c 0,1.273674 0.26847,2.225804 0.80541,2.856393 0.53693,0.630593 1.17065,0.945888 1.90114,0.945887 0.73672,1e-6 1.36263,-0.301246 1.87773,-0.903744 0.51508,-0.602493 0.77262,-1.521845 0.77263,-2.758058 -1e-5,-1.361073 -0.26224,-2.360029 -0.78668,-2.996872 -0.52446,-0.636826 -1.17066,-0.955244 -1.9386,-0.955252 -0.74922,8e-6 -1.37513,0.305939 -1.87773,0.917792 -0.5026,0.611868 -0.7539,1.576485 -0.7539,2.893854 z"
         id="path3195"
         inkscape:connector-curvature="0" />
      <path
         d="m 163.37553,42.615812 1.74193,0.2154 c -0.27473,1.017689 -0.78357,1.807489 -1.52653,2.369401 -0.74299,0.561914 -1.69199,0.84287 -2.84703,0.84287 -1.45474,0 -2.60822,-0.447969 -3.46045,-1.343909 -0.85224,-0.895938 -1.27836,-2.152437 -1.27835,-3.769503 -1e-5,-1.673246 0.43079,-2.971889 1.2924,-3.895933 0.86159,-0.924025 1.97918,-1.386042 3.35275,-1.386053 1.32985,1.1e-5 2.41622,0.452663 3.25909,1.357958 0.84286,0.905313 1.2643,2.178982 1.26431,3.821011 -1e-5,0.0999 -0.003,0.249744 -0.009,0.449531 l -7.41725,0 c 0.0624,1.092612 0.37148,1.929238 0.92715,2.509879 0.55567,0.580646 1.2487,0.870967 2.07908,0.870966 0.6181,1e-6 1.14568,-0.162329 1.58273,-0.486991 0.43703,-0.324659 0.78355,-0.842868 1.03954,-1.554627 z m -5.53485,-2.72528 5.55358,0 c -0.0749,-0.83662 -0.28721,-1.46409 -0.63684,-1.88241 -0.53695,-0.649314 -1.23309,-0.973975 -2.08844,-0.973984 -0.7742,9e-6 -1.42508,0.259113 -1.95265,0.777314 -0.52758,0.518217 -0.81946,1.211242 -0.87565,2.07908 z"
         id="path3197"
         inkscape:connector-curvature="0" />
      <path
         d="m 167.22464,45.818718 0,-9.945867 1.51717,0 0,1.507801 c 0.38709,-0.705505 0.74453,-1.170644 1.07231,-1.395419 0.32778,-0.224755 0.68834,-0.337137 1.08169,-0.337148 0.56815,1.1e-5 1.14567,0.181071 1.73256,0.543183 l -0.58064,1.563993 c -0.41208,-0.243488 -0.82415,-0.365236 -1.23621,-0.365244 -0.36837,8e-6 -0.69927,0.11083 -0.99271,0.332465 -0.29345,0.221652 -0.50261,0.529143 -0.62747,0.922475 -0.18731,0.599381 -0.28096,1.254946 -0.28096,1.966697 l 0,5.207064 z"
         id="path3199"
         inkscape:connector-curvature="0" />
      <path
         d="m 179.18402,45.818718 0,-13.729417 4.72944,0 c 1.06763,1.3e-5 1.8824,0.06557 2.44432,0.196669 0.78667,0.181075 1.45784,0.508857 2.01352,0.983349 0.72424,0.611873 1.26586,1.393868 1.62487,2.345988 0.35899,0.95214 0.53849,2.040066 0.5385,3.26378 -1e-5,1.042668 -0.12176,1.966702 -0.36524,2.772107 -0.24351,0.805412 -0.55568,1.471903 -0.93653,1.999475 -0.38086,0.527576 -0.79761,0.942767 -1.25025,1.245574 -0.45267,0.30281 -0.99897,0.532258 -1.63892,0.688344 -0.63996,0.156088 -1.37513,0.234131 -2.20551,0.234131 z m 1.81685,-1.620184 2.93132,0 c 0.9053,2e-6 1.61549,-0.08429 2.13059,-0.252861 0.51507,-0.168572 0.92558,-0.405824 1.23152,-0.711757 0.43079,-0.430797 0.76638,-1.009879 1.00676,-1.737249 0.24037,-0.72736 0.36055,-1.609251 0.36057,-2.645675 -2e-5,-1.435993 -0.23571,-2.539527 -0.70708,-3.310607 -0.47139,-0.771059 -1.04423,-1.287706 -1.71852,-1.549944 -0.487,-0.187293 -1.27055,-0.280945 -2.35067,-0.280957 l -2.88449,0 z"
         id="path3201"
         inkscape:connector-curvature="0" />
      <path
         d="m 199.31925,44.591874 c -0.62435,0.530696 -1.22529,0.905305 -1.8028,1.123826 -0.57753,0.218522 -1.19719,0.327783 -1.859,0.327783 -1.09261,0 -1.93236,-0.266909 -2.51924,-0.800726 -0.58689,-0.533817 -0.88033,-1.215917 -0.88033,-2.046302 0,-0.486988 0.11082,-0.931836 0.33246,-1.334544 0.22164,-0.4027 0.51197,-0.7258 0.87097,-0.969301 0.35899,-0.24349 0.76326,-0.427673 1.21279,-0.552548 0.3309,-0.0874 0.83038,-0.17169 1.49844,-0.252861 1.36107,-0.162324 2.36315,-0.355872 3.00624,-0.580644 0.006,-0.231002 0.009,-0.377724 0.009,-0.440165 -1e-5,-0.686776 -0.15922,-1.170645 -0.47763,-1.45161 -0.4308,-0.380844 -1.07076,-0.57127 -1.91987,-0.571278 -0.79292,8e-6 -1.37825,0.138926 -1.75598,0.416752 -0.37773,0.277843 -0.65712,0.769517 -0.83818,1.475023 l -1.64828,-0.224766 c 0.14984,-0.705505 0.39646,-1.275222 0.73985,-1.709153 0.34339,-0.433913 0.83975,-0.767939 1.48907,-1.002079 0.64932,-0.23412 1.40166,-0.351185 2.25702,-0.351196 0.84911,1.1e-5 1.53901,0.09991 2.06971,0.299688 0.53069,0.199801 0.92091,0.451101 1.17066,0.7539 0.24973,0.302818 0.42454,0.685231 0.52445,1.14724 0.0562,0.287208 0.0843,0.805416 0.0843,1.554627 l 0,2.247654 c -1e-5,1.567116 0.0359,2.558268 0.1077,2.973458 0.0718,0.415192 0.21383,0.813214 0.42611,1.194066 l -1.76066,0 c -0.17482,-0.349635 -0.28721,-0.758582 -0.33715,-1.226844 z m -0.14047,-3.76482 c -0.61187,0.249744 -1.52966,0.462022 -2.75338,0.636835 -0.69303,0.0999 -1.18314,0.212283 -1.47034,0.337148 -0.2872,0.124874 -0.50885,0.307495 -0.66493,0.547866 -0.15609,0.240377 -0.23413,0.507286 -0.23413,0.800726 0,0.449533 0.17013,0.824142 0.5104,1.123827 0.34027,0.299688 0.83819,0.449532 1.49376,0.449531 0.64931,10e-7 1.22684,-0.142038 1.73256,-0.426118 0.50572,-0.284076 0.8772,-0.672733 1.11446,-1.16597 0.18106,-0.380849 0.27159,-0.942762 0.2716,-1.68574 z"
         id="path3203"
         inkscape:connector-curvature="0" />
      <path
         d="m 206.26826,45.818718 -3.78355,-9.945867 1.77939,0 2.13527,5.956282 c 0.231,0.643082 0.44328,1.311134 0.63683,2.004158 0.14984,-0.52445 0.359,-1.155041 0.62747,-1.891776 l 2.2102,-6.068664 1.73256,0 -3.76482,9.945867 z"
         id="path3205"
         inkscape:connector-curvature="0" />
      <path
         d="m 213.10486,34.027902 0,-1.938601 1.68574,0 0,1.938601 z m 0,11.790816 0,-9.945867 1.68574,0 0,9.945867 z"
         id="path3207"
         inkscape:connector-curvature="0" />
      <path
         d="m 216.69174,42.849942 1.66701,-0.262226 c 0.0937,0.668055 0.35431,1.18002 0.78199,1.535897 0.42768,0.355879 1.02549,0.533818 1.79344,0.533817 0.77419,1e-6 1.34859,-0.157646 1.72321,-0.472944 0.3746,-0.315293 0.5619,-0.685219 0.56191,-1.109778 -1e-5,-0.38085 -0.16546,-0.680537 -0.49636,-0.899062 -0.23101,-0.14984 -0.80541,-0.340266 -1.7232,-0.571279 -1.23621,-0.312169 -2.09313,-0.582199 -2.57075,-0.810091 -0.47763,-0.227882 -0.83975,-0.543178 -1.08637,-0.945888 -0.24662,-0.402698 -0.36993,-0.847546 -0.36992,-1.334544 -1e-5,-0.44328 0.10145,-0.853788 0.30437,-1.231527 0.20291,-0.377722 0.47918,-0.691457 0.82882,-0.941205 0.26222,-0.193538 0.61966,-0.35743 1.07232,-0.491674 0.45264,-0.134225 0.93807,-0.201342 1.45629,-0.201353 0.78043,1.1e-5 1.46565,0.112393 2.05566,0.337148 0.59001,0.224775 1.02549,0.529145 1.30645,0.91311 0.28095,0.383982 0.4745,0.897508 0.58065,1.540579 l -1.64828,0.224765 c -0.0749,-0.511958 -0.29189,-0.91154 -0.65089,-1.198748 -0.359,-0.287192 -0.86628,-0.430792 -1.52184,-0.430801 -0.7742,9e-6 -1.32675,0.128 -1.65765,0.383975 -0.33091,0.255991 -0.49636,0.555677 -0.49636,0.899061 0,0.218529 0.0687,0.415199 0.20604,0.590009 0.13735,0.181068 0.35275,0.330911 0.6462,0.449531 0.16857,0.06244 0.66493,0.206041 1.48907,0.4308 1.1925,0.318423 2.02444,0.579089 2.49583,0.781996 0.47138,0.202918 0.8413,0.497923 1.10978,0.885014 0.26846,0.3871 0.4027,0.867847 0.40271,1.442244 -1e-5,0.561916 -0.1639,1.091051 -0.49168,1.587406 -0.32779,0.496357 -0.80073,0.880331 -1.41883,1.151922 -0.61811,0.271591 -1.31738,0.407387 -2.09781,0.407387 -1.2924,0 -2.27731,-0.268469 -2.95473,-0.805409 -0.67742,-0.536938 -1.10978,-1.332981 -1.29708,-2.388132 z"
         id="path3209"
         inkscape:connector-curvature="0" />
      <path
         d="m 245.57409,37.614782 c 0.83037,0.905313 1.54837,1.593656 2.154,2.065032 0.6056,0.471389 1.17688,0.822584 1.71384,1.053588 l 0,0.421435 c -0.61812,0.299691 -1.2175,0.682104 -1.79812,1.14724 -0.58066,0.465142 -1.27369,1.147242 -2.07908,2.046301 l -0.72113,0 c 0.58688,-1.254937 1.20186,-2.219554 1.84495,-2.893854 l -14.93753,0 0,-0.945888 14.93753,0 c -0.47452,-0.605612 -0.80542,-1.055142 -0.99271,-1.348592 -0.18732,-0.293437 -0.46515,-0.808523 -0.83351,-1.545262 z"
         id="path3211"
         inkscape:connector-curvature="0" />
      <path
         d="m 256.91537,45.818718 0,-13.729417 5.15088,0 c 1.04889,1.3e-5 1.8902,0.138931 2.52392,0.416752 0.63371,0.277848 1.13006,0.705526 1.48907,1.283036 0.35899,0.577533 0.53849,1.181589 0.5385,1.81217 -1e-5,0.586897 -0.15922,1.139445 -0.47762,1.657645 -0.31843,0.518217 -0.79918,0.93653 -1.44225,1.25494 0.83038,0.243503 1.46877,0.658694 1.91519,1.245574 0.4464,0.586893 0.6696,1.279919 0.66961,2.07908 -10e-6,0.643082 -0.1358,1.240895 -0.40738,1.79344 -0.27161,0.55255 -0.60719,0.978667 -1.00676,1.278353 -0.3996,0.299688 -0.90064,0.526014 -1.50312,0.678979 -0.60251,0.152965 -1.3408,0.229448 -2.21488,0.229448 z m 1.81686,-7.96044 2.96877,0 c 0.8054,8e-6 1.38293,-0.05306 1.73257,-0.159209 0.46201,-0.137348 0.81008,-0.365235 1.04422,-0.683661 0.23412,-0.318408 0.35119,-0.717991 0.3512,-1.198749 -10e-6,-0.455763 -0.10927,-0.856907 -0.32779,-1.203431 -0.21853,-0.346501 -0.5307,-0.583754 -0.93652,-0.711757 -0.40583,-0.127979 -1.10198,-0.191975 -2.08844,-0.191987 l -2.74401,0 z m 0,6.340256 3.4183,0 c 0.58688,2e-6 0.99895,-0.02185 1.23621,-0.06556 0.41831,-0.07492 0.76794,-0.19979 1.04891,-0.374609 0.28094,-0.174815 0.51195,-0.429237 0.69302,-0.763266 0.18105,-0.334023 0.27158,-0.719558 0.27159,-1.156605 -10e-6,-0.511961 -0.13112,-0.956809 -0.39333,-1.334544 -0.26224,-0.377725 -0.62592,-0.643073 -1.09105,-0.796044 -0.46515,-0.152959 -1.13476,-0.229442 -2.00884,-0.229448 l -3.17481,0 z"
         id="path3213"
         inkscape:connector-curvature="0" />
      <path
         d="m 268.29412,45.818718 5.27262,-13.729417 1.95734,0 5.61913,13.729417 -2.06971,0 -1.60146,-4.158159 -5.74088,0 -1.5078,4.158159 z m 3.96149,-5.637864 4.65452,0 -1.43288,-3.802281 c -0.43705,-1.155034 -0.76171,-2.104042 -0.97398,-2.847028 -0.17483,0.880342 -0.42144,1.754429 -0.73986,2.622262 z"
         id="path3215"
         inkscape:connector-curvature="0" />
      <path
         d="m 282.61354,45.818718 0,-13.729417 4.72944,0 c 1.06763,1.3e-5 1.8824,0.06557 2.44432,0.196669 0.78667,0.181075 1.45784,0.508857 2.01352,0.983349 0.72424,0.611873 1.26586,1.393868 1.62487,2.345988 0.35899,0.95214 0.53849,2.040066 0.5385,3.26378 -10e-6,1.042668 -0.12176,1.966702 -0.36524,2.772107 -0.24351,0.805412 -0.55569,1.471903 -0.93653,1.999475 -0.38086,0.527576 -0.79761,0.942767 -1.25025,1.245574 -0.45267,0.30281 -0.99897,0.532258 -1.63892,0.688344 -0.63996,0.156088 -1.37513,0.234131 -2.20551,0.234131 z m 1.81685,-1.620184 2.93132,0 c 0.9053,2e-6 1.61549,-0.08429 2.13059,-0.252861 0.51507,-0.168572 0.92558,-0.405824 1.23152,-0.711757 0.43079,-0.430797 0.76638,-1.009879 1.00676,-1.737249 0.24037,-0.72736 0.36055,-1.609251 0.36057,-2.645675 -2e-5,-1.435993 -0.23571,-2.539527 -0.70708,-3.310607 -0.47139,-0.771059 -1.04423,-1.287706 -1.71852,-1.549944 -0.487,-0.187293 -1.27055,-0.280945 -2.35067,-0.280957 l -2.88449,0 z"
         id="path3217"
         inkscape:connector-curvature="0" />
    </g>
    <path
       sodipodi:type="arc"
       style="fill:#000000;fill-opacity:0;stroke:#0000ff;stroke-width:3.12826228;stroke-linecap:round;stroke-linejoin:round;stroke-miterlimit:4;stroke-opacity:1;stroke-dasharray:none;display:inline"
       id="path2989"
       sodipodi:cx="67.680222"
       sodipodi:cy="457.88742"
       sodipodi:rx="14.142136"
       sodipodi:ry="28.284271"
       d="m 81.822357,457.88742 a 14.142136,28.284271 0 1 1 -28.284271,0 14.142136,28.284271 0 1 1 28.284271,0 z"
       transform="matrix(0.47949944,0,0,0.47949944,-24.67148,-180.90982)" />
    <use
       style="stroke-width:1.5;stroke-miterlimit:4;stroke-dasharray:none;display:inline"
       x="0"
       y="0"
       xlink:href="#path2989"
       id="use2991"
       transform="translate(-127.08661,-410.5372)"
       width="744.09448"
       height="1052.3622" />
    <use
       style="stroke-width:1.5;stroke-miterlimit:4;stroke-dasharray:none;display:inline"
       x="0"
       y="0"
       xlink:href="#path2989"
       id="use2995"
       transform="translate(-35.05677,-410.5372)"
       width="744.09448"
       height="1052.3622" />
    <use
       style="stroke-width:1.5;stroke-miterlimit:4;stroke-dasharray:none;display:inline"
       x="0"
       y="0"
       xlink:href="#path2989"
       id="use2997"
       transform="translate(41.95768,-410.5372)"
       width="744.09448"
       height="1052.3622" />
    <use
       style="stroke-width:1.5;stroke-miterlimit:4;stroke-dasharray:none;display:inline"
       x="0"
       y="0"
       xlink:href="#use2999"
       id="use3001"
       transform="translate(-224.92886,-411.90348)"
       width="744.09448"
       height="1052.3622" />
    <path
       transform="translate(-211.60875,-411.90348)"
       style="fill:none;stroke:#0000ff;stroke-width:1.5;stroke-linecap:butt;stroke-linejoin:miter;stroke-miterlimit:4;stroke-opacity:1;stroke-dasharray:none;marker-end:url(#Arrow2Lend);display:inline"
       d="m 222.93119,438.33218 c 78.2219,-22.78844 156.68954,-30.25245 245.64132,0.56913"
       id="path3005"
       inkscape:connector-curvature="0"
       sodipodi:nodetypes="cc" />
    <path
       transform="translate(-211.60875,-411.90348)"
       sodipodi:nodetypes="cc"
       inkscape:connector-curvature="0"
       id="use3007"
       d="m 305.88425,437.57751 c 56.82801,-28.8855 112.33883,-39.37017 176.96208,-0.30223"
       style="fill:none;stroke:#0000ff;stroke-width:1.5;stroke-linecap:butt;stroke-linejoin:miter;stroke-miterlimit:4;stroke-opacity:1;stroke-dasharray:none;marker-end:url(#Arrow2Lend);display:inline" />
    <path
       transform="translate(-211.60875,-411.90348)"
       sodipodi:nodetypes="cc"
       inkscape:connector-curvature="0"
       id="use3009"
       d="m 396.5147,437.53838 c 31.92587,-26.48347 65.65386,-37.62876 101.95907,-1.80961"
       style="fill:none;stroke:#0000ff;stroke-width:1.5;stroke-linecap:butt;stroke-linejoin:miter;stroke-miterlimit:4;stroke-opacity:1;stroke-dasharray:none;marker-end:url(#Arrow2Lend);display:inline" />
    <path
       sodipodi:type="arc"
       style="fill:#000000;fill-opacity:0;stroke:#0000ff;stroke-width:3.12826228;stroke-linecap:round;stroke-linejoin:round;stroke-miterlimit:4;stroke-opacity:1;stroke-dasharray:none;display:inline"
       id="path2989-5"
       sodipodi:cx="67.680222"
       sodipodi:cy="457.88742"
       sodipodi:rx="14.142136"
       sodipodi:ry="28.284271"
       d="m 81.822357,457.88742 a 14.142136,28.284271 0 1 1 -28.284271,0 14.142136,28.284271 0 1 1 28.284271,0 z"
       transform="matrix(0.47949944,0,0,0.47949944,60.047372,-180.55268)" />
    <path
       sodipodi:type="arc"
       style="fill:#000000;fill-opacity:0;stroke:#0000ff;stroke-width:3.12826228;stroke-linecap:round;stroke-linejoin:round;stroke-miterlimit:4;stroke-opacity:1;stroke-dasharray:none;display:inline"
       id="path2989-1"
       sodipodi:cx="67.680222"
       sodipodi:cy="457.88742"
       sodipodi:rx="14.142136"
       sodipodi:ry="28.284271"
       d="m 81.822357,457.88742 a 14.142136,28.284271 0 1 1 -28.284271,0 14.142136,28.284271 0 1 1 28.284271,0 z"
       transform="matrix(0.47949944,0,0,0.47949944,151.1188,-180.55268)" />
    <path
       sodipodi:type="arc"
       style="fill:#000000;fill-opacity:0;stroke:#0000ff;stroke-width:3.12826228;stroke-linecap:round;stroke-linejoin:round;stroke-miterlimit:4;stroke-opacity:1;stroke-dasharray:none;display:inline"
       id="path2989-7"
       sodipodi:cx="67.680222"
       sodipodi:cy="457.88742"
       sodipodi:rx="14.142136"
       sodipodi:ry="28.284271"
       d="m 81.822357,457.88742 a 14.142136,28.284271 0 1 1 -28.284271,0 14.142136,28.284271 0 1 1 28.284271,0 z"
       transform="matrix(0.47949944,0,0,0.47949944,230.04737,-180.55268)" />
    <path
       sodipodi:type="arc"
       style="fill:#000000;fill-opacity:0;stroke:#0000ff;stroke-width:3.12826228;stroke-linecap:round;stroke-linejoin:round;stroke-miterlimit:4;stroke-opacity:1;stroke-dasharray:none;display:inline"
       id="path2989-11"
       sodipodi:cx="67.680222"
       sodipodi:cy="457.88742"
       sodipodi:rx="14.142136"
       sodipodi:ry="28.284271"
       d="m 81.822357,457.88742 a 14.142136,28.284271 0 1 1 -28.284271,0 14.142136,28.284271 0 1 1 28.284271,0 z"
       transform="matrix(0.47949944,0,0,0.47949944,242.69023,-180.55268)" />
    <path
       sodipodi:type="arc"
       style="fill:#000000;fill-opacity:0;stroke:#0000ff;stroke-width:3.12826228;stroke-linecap:round;stroke-linejoin:round;stroke-miterlimit:4;stroke-opacity:1;stroke-dasharray:none;display:inline"
       id="path2989-52"
       sodipodi:cx="67.680222"
       sodipodi:cy="457.88742"
       sodipodi:rx="14.142136"
       sodipodi:ry="28.284271"
       d="m 81.822357,457.88742 a 14.142136,28.284271 0 1 1 -28.284271,0 14.142136,28.284271 0 1 1 28.284271,0 z"
       transform="matrix(0.47949944,0,0,0.47949944,256.26166,-180.55268)" />
  </g>
</svg>
